<?xml version="1.0" encoding="UTF-8" standalone="no"?>
<!-- Created with Inkscape (http://www.inkscape.org/) -->

<svg
   width="210mm"
   height="297mm"
   viewBox="0 0 210 297"
   version="1.1"
   id="svg1"
   inkscape:version="1.3 (0e150ed6c4, 2023-07-21)"
   sodipodi:docname="FooterArrow.svg"
   xmlns:inkscape="http://www.inkscape.org/namespaces/inkscape"
   xmlns:sodipodi="http://sodipodi.sourceforge.net/DTD/sodipodi-0.dtd"
   xmlns="http://www.w3.org/2000/svg"
   xmlns:svg="http://www.w3.org/2000/svg">
  <sodipodi:namedview
     id="namedview1"
     pagecolor="#505050"
     bordercolor="#eeeeee"
     borderopacity="1"
     inkscape:showpageshadow="0"
     inkscape:pageopacity="0"
     inkscape:pagecheckerboard="0"
     inkscape:deskcolor="#505050"
     inkscape:document-units="mm"
     inkscape:zoom="0.59883106"
     inkscape:cx="326.46937"
     inkscape:cy="580.29722"
     inkscape:window-width="1920"
     inkscape:window-height="1009"
     inkscape:window-x="1672"
     inkscape:window-y="-8"
     inkscape:window-maximized="1"
     inkscape:current-layer="layer1" />
  <defs
     id="defs1">
    <inkscape:path-effect
       effect="powerstroke"
       id="path-effect5"
       is_visible="true"
       lpeversion="1.3"
       scale_width="1"
       interpolator_type="CentripetalCatmullRom"
       interpolator_beta="0.75"
       start_linecap_type="round"
       end_linecap_type="round"
       offset_points="38.442233,6.6274951"
       linejoin_type="spiro"
       miter_limit="4"
       not_jump="true"
       sort_points="true"
       message="&lt;b&gt;Ctrl + click&lt;/b&gt; on existing node and move it" />
    <inkscape:path-effect
       effect="simplify"
       id="path-effect4"
       is_visible="true"
       lpeversion="1.3"
       threshold="0.012"
       steps="1"
       smooth_angles="0"
       helper_size="0"
       simplify_individual_paths="false"
       simplify_just_coalesce="false"
       step="1" />
    <inkscape:path-effect
       effect="powerstroke"
       id="path-effect3"
       is_visible="true"
       lpeversion="1.3"
       scale_width="1"
       interpolator_type="CentripetalCatmullRom"
       interpolator_beta="0.75"
       start_linecap_type="round"
       end_linecap_type="round"
       offset_points="80.36687,9.3726935"
       linejoin_type="spiro"
       miter_limit="4"
       not_jump="true"
       sort_points="true"
       message="&lt;b&gt;Ctrl + click&lt;/b&gt; on existing node and move it" />
    <inkscape:path-effect
       effect="simplify"
       id="path-effect2"
       is_visible="true"
       lpeversion="1.3"
       threshold="0.012"
       steps="1"
       smooth_angles="0"
       helper_size="0"
       simplify_individual_paths="false"
       simplify_just_coalesce="false"
       step="1" />
  </defs>
  <g
     inkscape:label="Layer 1"
     inkscape:groupmode="layer"
     id="layer1">
    <path
       d="m 26.598333,215.22776 c 0.149139,-0.27631 0.306075,-0.56707 0.470726,-0.87212 0.141906,-0.25974 0.2983,-0.54599 0.461036,-0.84386 0.14212,-0.25695 0.297977,-0.53874 0.459207,-0.83025 0.142075,-0.2537 0.297397,-0.53105 0.457372,-0.81671 0.141858,-0.25014 0.296648,-0.52308 0.455533,-0.80325 0.14152,-0.24638 0.295778,-0.51494 0.45369,-0.78986 0.141091,-0.24249 0.294819,-0.5067 0.45184,-0.77656 0.140592,-0.23849 0.293791,-0.49837 0.449984,-0.76333 0.140039,-0.23443 0.292709,-0.49 0.448122,-0.75017 0.139439,-0.23032 0.291582,-0.48162 0.446252,-0.7371 0.138801,-0.22617 0.290417,-0.47322 0.444374,-0.72409 0.138131,-0.22201 0.28922,-0.46484 0.442487,-0.71118 0.137431,-0.21782 0.287994,-0.45646 0.440593,-0.69833 0.136705,-0.21363 0.286742,-0.44811 0.438687,-0.68556 0.135955,-0.20945 0.285466,-0.43978 0.436773,-0.67288 0.135182,-0.20526 0.284167,-0.43148 0.434846,-0.66027 0.134388,-0.20108 0.282848,-0.42321 0.43291,-0.64774 0.133574,-0.19691 0.281508,-0.41498 0.430959,-0.63529 0.132741,-0.19275 0.280149,-0.40679 0.428999,-0.62293 0.131888,-0.1886 0.27877,-0.39864 0.427022,-0.61064 0.131018,-0.18447 0.277373,-0.39053 0.425035,-0.59844 0.130129,-0.18035 0.275956,-0.38247 0.423031,-0.58631 0.129222,-0.17627 0.274521,-0.37446 0.421013,-0.57428 0.128297,-0.17219 0.273067,-0.36649 0.41898,-0.56233 0.127355,-0.16814 0.271595,-0.35857 0.41693,-0.55045 0.126395,-0.16412 0.270104,-0.35072 0.414865,-0.53868 0.125416,-0.16011 0.268594,-0.3429 0.412782,-0.52698 0.124421,-0.15614 0.267066,-0.33514 0.410683,-0.51537 0.123406,-0.15219 0.265518,-0.32745 0.408565,-0.50386 0.122375,-0.14827 0.263951,-0.3198 0.406429,-0.49243 0.121326,-0.14438 0.262366,-0.31222 0.404275,-0.48109 0.120259,-0.14053 0.260762,-0.3047 0.402104,-0.46986 0.119173,-0.13669 0.259138,-0.29724 0.399912,-0.45871 0.118071,-0.1329 0.257495,-0.28984 0.397702,-0.44765 0.116951,-0.12915 0.255834,-0.28251 0.395474,-0.43671 0.115813,-0.12542 0.254154,-0.27524 0.393227,-0.42585 0.114658,-0.12174 0.252455,-0.26805 0.390961,-0.41511 0.113486,-0.11809 0.250738,-0.26091 0.388677,-0.40445 0.05599,-0.0571 0.112096,-0.11428 0.168313,-0.1716 0.07207,-0.0735 0.144756,-0.14758 0.218063,-0.22232 0.109685,-0.10952 0.245852,-0.24548 0.384057,-0.38347 0.108603,-0.10617 0.244222,-0.23874 0.381722,-0.37316 0.107487,-0.10283 0.242557,-0.23205 0.37937,-0.36293 0.106342,-0.0995 0.240862,-0.22543 0.377005,-0.35284 0.10517,-0.0963 0.23914,-0.21886 0.374626,-0.34285 0.103973,-0.093 0.237394,-0.21237 0.372234,-0.33299 0.102757,-0.0898 0.235628,-0.20594 0.369833,-0.32324 0.101521,-0.0866 0.233843,-0.19959 0.36742,-0.31361 0.10027,-0.0835 0.232044,-0.19333 0.365003,-0.30411 0.099,-0.0805 0.230232,-0.18716 0.362579,-0.29474 0.09773,-0.0775 0.228411,-0.18107 0.360153,-0.2855 0.09644,-0.0745 0.226582,-0.17506 0.357727,-0.27639 0.09515,-0.0716 0.224749,-0.16915 0.355304,-0.26741 0.09386,-0.0688 0.222915,-0.16333 0.352885,-0.25857 0.09256,-0.066 0.221083,-0.15761 0.350476,-0.24986 0.09126,-0.0633 0.219256,-0.15199 0.348078,-0.2413 0.08997,-0.0606 0.217437,-0.14647 0.345698,-0.23287 0.08868,-0.058 0.21563,-0.14106 0.343335,-0.2246 0.08741,-0.0555 0.213838,-0.13574 0.340997,-0.21646 0.08614,-0.053 0.212065,-0.13053 0.338686,-0.20847 0.08489,-0.0506 0.210315,-0.12543 0.336408,-0.20062 0.08366,-0.0483 0.208592,-0.12043 0.334166,-0.19293 0.08245,-0.046 0.206899,-0.11554 0.331965,-0.18538 0.08126,-0.0438 0.205241,-0.11075 0.32981,-0.17798 0.08011,-0.0417 0.203622,-0.10607 0.327706,-0.17072 0.07898,-0.0397 0.202047,-0.10151 0.325658,-0.16361 0.07789,-0.0377 0.200515,-0.097 0.323669,-0.15665 0.07684,-0.0358 0.199036,-0.0927 0.321745,-0.14984 0.07583,-0.0339 0.197613,-0.0884 0.319892,-0.14316 0.07486,-0.0322 0.196249,-0.0843 0.318113,-0.13663 0.07394,-0.0304 0.194947,-0.0802 0.316413,-0.13024 0.07307,-0.0288 0.193711,-0.0763 0.314796,-0.12398 0.07226,-0.0272 0.192546,-0.0724 0.313266,-0.11785 0.0715,-0.0257 0.191456,-0.0687 0.311828,-0.11187 0.0708,-0.0242 0.190439,-0.065 0.310485,-0.106 0.07016,-0.0228 0.189502,-0.0614 0.30924,-0.10026 0.06958,-0.0214 0.188646,-0.058 0.308095,-0.0946 0.06907,-0.0201 0.187875,-0.0545 0.307055,-0.0891 0.06862,-0.0188 0.18719,-0.0512 0.306119,-0.0837 0.06824,-0.0175 0.186592,-0.0479 0.305293,-0.0784 0.06793,-0.0163 0.186081,-0.0447 0.304573,-0.0733 0.06769,-0.0152 0.185663,-0.0416 0.303965,-0.0682 0.06752,-0.014 0.185329,-0.0386 0.303466,-0.0632 0.06741,-0.0129 0.185087,-0.0356 0.303078,-0.0582 0.06738,-0.0119 0.184934,-0.0326 0.302798,-0.0534 0.06742,-0.0108 0.184871,-0.0297 0.302627,-0.0486 0.06751,-0.01 0.184893,-0.0268 0.302564,-0.0439 0.06768,-0.009 0.185002,-0.024 0.302607,-0.0393 0.06792,-0.008 0.185194,-0.0213 0.302752,-0.0348 0.06821,-0.007 0.18547,-0.0185 0.303,-0.0302 0.06858,-0.006 0.185827,-0.0158 0.303344,-0.0258 0.06899,-0.005 0.186258,-0.0131 0.303784,-0.0214 0.06947,-0.004 0.186765,-0.0105 0.304316,-0.0171 0.07,-0.003 0.187344,-0.008 0.304936,-0.0127 0.07059,-0.002 0.18799,-0.005 0.30564,-0.008 0.07122,-9.8e-4 0.188702,-0.003 0.306423,-0.004 0.0719,-1e-5 0.189476,-1e-5 0.307284,-2e-5 0.07263,9.8e-4 0.190308,0.003 0.308216,0.004 0.0734,0.002 0.191194,0.005 0.309215,0.008 0.07421,0.003 0.192131,0.008 0.310278,0.0124 0.07505,0.004 0.193116,0.0102 0.3114,0.0165 0.07593,0.005 0.194145,0.0127 0.312577,0.0205 0.07683,0.006 0.195213,0.0153 0.313803,0.0246 0.07777,0.007 0.196321,0.0178 0.315076,0.0286 0.07873,0.008 0.197458,0.0203 0.316391,0.0325 0.07971,0.009 0.198628,0.0228 0.317745,0.0365 0.08071,0.0102 0.199824,0.0253 0.319133,0.0404 0.08173,0.0113 0.201044,0.0278 0.320551,0.0443 0.08277,0.0124 0.202288,0.0303 0.321998,0.0482 0.08381,0.0135 0.203544,0.0327 0.323467,0.052 0.08486,0.0146 0.20482,0.0352 0.324958,0.0558 0.08593,0.0157 0.20611,0.0376 0.326466,0.0596 0.087,0.0168 0.207407,0.0401 0.32799,0.0633 0.08808,0.0179 0.208716,0.0425 0.329525,0.067 0.08916,0.019 0.210029,0.0449 0.331072,0.0707 0.09024,0.0202 0.21135,0.0473 0.332625,0.0744 0.09132,0.0213 0.21267,0.0496 0.334185,0.078 0.0924,0.0224 0.213994,0.052 0.335748,0.0815 0.09348,0.0236 0.215317,0.0543 0.337314,0.0851 0.09455,0.0247 0.216639,0.0566 0.33888,0.0885 0.09563,0.0258 0.217961,0.0589 0.340445,0.092 0.09669,0.027 0.219278,0.0611 0.342009,0.0954 0.09775,0.0281 0.220588,0.0634 0.34357,0.0987 0.09881,0.0292 0.221896,0.0656 0.345126,0.10199 0.09985,0.0303 0.223195,0.0677 0.346678,0.10523 0.100899,0.0314 0.224493,0.0699 0.348225,0.10842 0.101927,0.0325 0.225779,0.072 0.349765,0.11156 0.102953,0.0336 0.22706,0.0741 0.3513,0.11463 0.103974,0.0347 0.228336,0.0761 0.352827,0.11765 0.10498,0.0357 0.229601,0.0781 0.354349,0.12061 0.105984,0.0368 0.230861,0.0801 0.355863,0.12351 0.106976,0.0378 0.232112,0.0821 0.357369,0.12635 0.107956,0.0388 0.233353,0.084 0.35887,0.12913 0.108935,0.0399 0.23459,0.0858 0.360362,0.13185 0.109899,0.0409 0.235817,0.0876 0.361849,0.13449 0.110862,0.0418 0.237039,0.0894 0.363328,0.13707 0.111814,0.0428 0.238253,0.0912 0.364802,0.13959 0.112753,0.0437 0.239458,0.0929 0.36627,0.14204 0.113689,0.0446 0.240658,0.0945 0.367731,0.14441 0.114618,0.0455 0.241853,0.0961 0.369188,0.14672 0.115541,0.0464 0.243041,0.0977 0.370641,0.14895 0.11646,0.0473 0.244226,0.0992 0.372089,0.15112 0.117369,0.0481 0.245404,0.10065 0.373532,0.1532 0.118269,0.049 0.246576,0.10207 0.374974,0.15522 0.120475,0.0503 0.250357,0.10453 0.380329,0.1588 2.315846,0.97124 4.595952,1.99639 7.018501,3.07029 1.478294,0.65547 2.993779,1.32219 4.529885,1.97245 0.142965,0.0603 0.278117,0.11732 0.413355,0.17436 0.0055,0.002 0.01105,0.005 0.01658,0.007 0.135245,0.0566 0.270576,0.11326 0.405991,0.16995 0.0059,0.002 0.0118,0.005 0.01771,0.007 0.13543,0.0562 0.270945,0.1125 0.40654,0.1688 0.0063,0.003 0.01256,0.005 0.01885,0.008 0.135618,0.0558 0.271317,0.11167 0.407094,0.16756 0.0067,0.003 0.01333,0.005 0.02,0.008 0.135814,0.0554 0.271705,0.1108 0.407673,0.16625 0.007,0.003 0.01409,0.006 0.02115,0.009 0.136008,0.0549 0.272091,0.10987 0.408248,0.16484 0.0074,0.003 0.01487,0.006 0.02231,0.009 0.136208,0.0544 0.27249,0.10888 0.408841,0.16337 0.0078,0.003 0.01564,0.006 0.02347,0.009 0.136415,0.0539 0.2729,0.10784 0.409453,0.1618 0.0082,0.003 0.01642,0.006 0.02464,0.01 0.136621,0.0534 0.273309,0.10674 0.410062,0.16015 0.0086,0.003 0.01721,0.007 0.02582,0.01 0.136832,0.0528 0.273729,0.10559 0.410688,0.15842 0.009,0.003 0.01799,0.007 0.027,0.0103 0.13705,0.0522 0.274162,0.10439 0.411334,0.15661 0.0094,0.004 0.01879,0.007 0.0282,0.0107 0.137267,0.0515 0.274593,0.10312 0.411976,0.15471 0.0098,0.004 0.0196,0.007 0.02941,0.011 0.137492,0.0509 0.27504,0.10181 0.412642,0.15274 0.0102,0.004 0.0204,0.008 0.03061,0.0112 0.137718,0.0502 0.27549,0.10043 0.413313,0.15068 0.0106,0.004 0.02121,0.008 0.03184,0.0115 0.137945,0.0495 0.275942,0.099 0.413988,0.14853 0.01101,0.004 0.02204,0.008 0.03307,0.0118 0.138181,0.0487 0.276412,0.0975 0.414689,0.14631 0.01142,0.004 0.02286,0.008 0.03431,0.012 0.138416,0.048 0.276878,0.096 0.415385,0.144 0.01184,0.004 0.02369,0.008 0.03556,0.0122 0.138657,0.0472 0.277358,0.0944 0.4161,0.14161 0.01226,0.004 0.02452,0.008 0.0368,0.0124 0.138907,0.0464 0.277855,0.0928 0.416841,0.13915 0.01268,0.004 0.02537,0.008 0.03807,0.0126 0.139148,0.0455 0.278335,0.091 0.417558,0.13658 0.0131,0.004 0.02621,0.009 0.03934,0.0127 0.139407,0.0446 0.27885,0.0893 0.418327,0.13395 0.01353,0.004 0.02707,0.009 0.04062,0.0129 0.139658,0.0437 0.279349,0.0875 0.419072,0.13122 0.01395,0.004 0.02792,0.009 0.0419,0.013 0.13992,0.0428 0.27987,0.0856 0.419846,0.12842 0.0144,0.004 0.0288,0.009 0.0432,0.0131 0.14019,0.0418 0.2804,0.0837 0.42063,0.12554 0.0148,0.004 0.0297,0.009 0.0445,0.0131 0.14045,0.0409 0.28092,0.0817 0.42142,0.12257 0.0153,0.004 0.0305,0.009 0.0458,0.0131 0.14072,0.0398 0.28147,0.0797 0.42223,0.11951 0.0157,0.004 0.0314,0.009 0.0471,0.0131 0.14099,0.0388 0.282,0.0776 0.42303,0.11638 0.0161,0.004 0.0323,0.009 0.0484,0.0131 0.14127,0.0377 0.28256,0.0754 0.42387,0.11317 0.0166,0.004 0.0331,0.009 0.0497,0.0131 0.14156,0.0366 0.28313,0.0732 0.42471,0.10987 0.017,0.004 0.034,0.009 0.051,0.013 0.14184,0.0355 0.28369,0.071 0.42555,0.10648 0.0174,0.004 0.0349,0.009 0.0524,0.0129 0.14213,0.0343 0.28427,0.0687 0.42641,0.10302 0.0179,0.004 0.0358,0.009 0.0537,0.0127 0.14242,0.0332 0.28485,0.0663 0.42728,0.0995 0.0183,0.004 0.0367,0.008 0.055,0.0126 0.14271,0.0319 0.28543,0.0639 0.42816,0.0959 0.0187,0.004 0.0375,0.008 0.0563,0.0123 0.14301,0.0307 0.28603,0.0614 0.42905,0.0921 0.0192,0.004 0.0384,0.008 0.0576,0.0121 0.14332,0.0294 0.28664,0.0589 0.42996,0.0883 0.0196,0.004 0.0393,0.008 0.0589,0.0118 0.14363,0.0282 0.28726,0.0563 0.43087,0.0845 0.0201,0.004 0.0401,0.008 0.0602,0.0115 0.14394,0.0268 0.28787,0.0537 0.4318,0.0805 0.0205,0.004 0.041,0.008 0.0615,0.0112 0.14425,0.0255 0.2885,0.051 0.43274,0.0765 0.0209,0.004 0.0418,0.007 0.0628,0.0108 0.14457,0.0241 0.28913,0.0482 0.43367,0.0723 0.0213,0.004 0.0427,0.007 0.0641,0.0104 0.1449,0.0227 0.28978,0.0454 0.43464,0.0681 0.0218,0.003 0.0435,0.007 0.0653,0.01 0.14522,0.0213 0.29042,0.0426 0.43561,0.0638 0.0222,0.003 0.0443,0.006 0.0665,0.009 0.14556,0.0198 0.29109,0.0396 0.43659,0.0595 0.0226,0.003 0.0452,0.006 0.0678,0.009 0.14589,0.0183 0.29175,0.0367 0.43758,0.055 0.023,0.003 0.046,0.006 0.069,0.008 0.14622,0.0168 0.29242,0.0337 0.43858,0.0505 0.0234,0.003 0.0468,0.005 0.0702,0.008 0.14656,0.0153 0.29309,0.0306 0.43959,0.0459 0.0237,0.002 0.0475,0.005 0.0713,0.007 0.14691,0.0137 0.29378,0.0274 0.44063,0.0412 0.0241,0.002 0.0483,0.004 0.0724,0.006 0.14725,0.0121 0.29447,0.0242 0.44165,0.0364 0.0245,0.002 0.049,0.004 0.0735,0.006 0.14761,0.0105 0.29518,0.021 0.44271,0.0315 0.0249,0.002 0.0497,0.003 0.0746,0.005 0.14796,0.009 0.29588,0.0177 0.44376,0.0266 0.0252,0.002 0.0504,0.003 0.0756,0.004 0.14831,0.007 0.29659,0.0143 0.44482,0.0215 0.0255,0.001 0.0511,0.002 0.0766,0.003 0.14868,0.005 0.29732,0.0109 0.44591,0.0164 0.0259,9.5e-4 0.0517,0.002 0.0776,0.002 0.14905,0.004 0.29804,0.007 0.44699,0.0112 0.0261,6.5e-4 0.0523,0.001 0.0785,0.002 0.14943,0.002 0.2988,0.004 0.44811,0.006 0.0264,3.5e-4 0.0529,5.4e-4 0.0793,5.7e-4 0.14979,1.9e-4 0.29953,3.7e-4 0.44921,5.6e-4 0.0267,3e-5 0.0534,-1e-4 0.0802,-3.9e-4 0.15017,-0.002 0.30028,-0.003 0.45033,-0.005 0.027,-2.9e-4 0.054,-7.5e-4 0.081,-0.001 0.15056,-0.003 0.30105,-0.007 0.45148,-0.0104 0.0272,-6.3e-4 0.0545,-0.001 0.0817,-0.002 0.15094,-0.005 0.30182,-0.0107 0.45262,-0.016 0.0275,-9.7e-4 0.0549,-0.002 0.0823,-0.003 0.15133,-0.007 0.3026,-0.0145 0.45379,-0.0217 0.0277,-0.001 0.0553,-0.003 0.083,-0.004 0.15172,-0.009 0.30337,-0.0183 0.45495,-0.0275 0.0279,-0.002 0.0557,-0.004 0.0835,-0.006 0.15212,-0.0111 0.30416,-0.0223 0.45612,-0.0334 0.028,-0.002 0.056,-0.004 0.0841,-0.007 0.15251,-0.0131 0.30496,-0.0262 0.45732,-0.0393 0.0282,-0.002 0.0563,-0.005 0.0845,-0.008 0.15292,-0.0151 0.30576,-0.0302 0.45852,-0.0453 0.0283,-0.003 0.0566,-0.006 0.0849,-0.009 0.15333,-0.0171 0.30657,-0.0343 0.45973,-0.0514 0.0284,-0.003 0.0568,-0.007 0.0852,-0.0101 0.15374,-0.0192 0.3074,-0.0384 0.46096,-0.0576 0.0285,-0.004 0.057,-0.007 0.0855,-0.0113 0.15415,-0.0213 0.30821,-0.0426 0.46218,-0.0639 0.0286,-0.004 0.0572,-0.008 0.0857,-0.0124 0.15457,-0.0234 0.30905,-0.0468 0.46343,-0.0702 0.0286,-0.004 0.0573,-0.009 0.0858,-0.0136 0.155,-0.0256 0.3099,-0.0511 0.4647,-0.0767 0.0287,-0.005 0.0573,-0.01 0.0859,-0.0148 0.15542,-0.0277 0.31073,-0.0555 0.46595,-0.0832 0.0287,-0.005 0.0573,-0.0104 0.0859,-0.0159 0.15586,-0.0299 0.31161,-0.0599 0.46725,-0.0898 0.0287,-0.006 0.0573,-0.0112 0.0859,-0.0171 0.15629,-0.0322 0.31247,-0.0643 0.46853,-0.0965 0.0286,-0.006 0.0572,-0.012 0.0858,-0.0183 0.15672,-0.0344 0.31333,-0.0689 0.46983,-0.10326 0.0286,-0.006 0.0571,-0.0128 0.0856,-0.0194 0.15717,-0.0367 0.31422,-0.0734 0.47115,-0.1101 0.0285,-0.007 0.057,-0.0135 0.0854,-0.0205 0.15761,-0.0391 0.31509,-0.0781 0.47246,-0.11704 0.0284,-0.007 0.0568,-0.0143 0.0851,-0.0217 0.15806,-0.0414 0.31599,-0.0827 0.4738,-0.12405 0.0283,-0.007 0.0565,-0.015 0.0847,-0.0228 0.15851,-0.0438 0.31689,-0.0875 0.47515,-0.13115 0.0281,-0.008 0.0563,-0.0157 0.0843,-0.0239 0.15897,-0.0461 0.3178,-0.0923 0.4765,-0.13833 0.028,-0.008 0.056,-0.0164 0.0838,-0.0249 0.15943,-0.0486 0.31872,-0.0971 0.47787,-0.14559 0.0278,-0.008 0.0556,-0.0172 0.0833,-0.026 0.15989,-0.051 0.31964,-0.10201 0.47925,-0.15294 0.0276,-0.009 0.0552,-0.0178 0.0828,-0.027 0.16036,-0.0535 0.32057,-0.10696 0.48063,-0.16037 0.0274,-0.009 0.0548,-0.0185 0.0821,-0.028 0.16083,-0.056 0.32152,-0.11197 0.48205,-0.16788 0.0272,-0.009 0.0543,-0.0191 0.0814,-0.029 0.16131,-0.0585 0.32246,-0.11704 0.48346,-0.17548 0.027,-0.01 0.0539,-0.0197 0.0807,-0.0299 0.16179,-0.0611 0.32341,-0.12216 0.48487,-0.18314 0.0267,-0.0101 0.0534,-0.0204 0.0799,-0.0308 0.16226,-0.0637 0.32436,-0.12733 0.4863,-0.1909 0.0131,-0.005 0.0263,-0.0104 0.0394,-0.0156 1.95062,-0.78016 3.85532,-1.65838 5.70661,-2.62559 1.93117,-1.00877 3.80141,-2.11288 5.60581,-3.29787 1.89206,-1.24242 3.71041,-2.57277 5.45414,-3.97263 1.83534,-1.47331 3.58855,-3.02386 5.2629,-4.63097 1.76555,-1.69462 3.44538,-3.4538 5.04665,-5.25657 1.68707,-1.89942 3.28984,-3.85034 4.81833,-5.83272 0.32197,-0.41746 0.63918,-0.83492 0.95121,-1.25014 -0.0207,0.026 -0.0353,0.0421 0.0246,-0.0295 0.0815,-0.097 0.17213,-0.20199 0.29181,-0.33987 0.21944,-0.25246 0.45507,-0.52073 0.70177,-0.8034 0.44285,-0.50725 0.91295,-1.04985 1.38334,-1.61344 0.27713,-0.33225 0.56846,-0.68833 0.86268,-1.06444 0.20597,-0.26356 0.43223,-0.56061 0.66339,-0.88473 0.15675,-0.22016 0.34343,-0.49085 0.5364,-0.8004 0.002,-0.003 0.004,-0.007 0.006,-0.0101 0.13267,-0.21367 0.34213,-0.56247 0.54966,-0.99479 0.005,-0.0102 0.01,-0.0204 0.0146,-0.0307 0.10057,-0.21229 0.37055,-0.78985 0.55336,-1.55401 0.002,-0.0104 0.005,-0.0209 0.007,-0.0314 0.0857,-0.36597 0.20188,-0.98362 0.18709,-1.75326 -0.009,-0.5473 -0.0872,-1.56331 -0.58356,-2.70624 -0.4474,-1.03956 -1.20444,-2.06515 -2.288,-2.84995 -1.01906,-0.73855 -2.03079,-1.05077 -2.72295,-1.19078 -0.81242,-0.16359 -1.48516,-0.1537 -1.87265,-0.13236 -0.005,3e-4 -0.011,6.1e-4 -0.0164,9.2e-4 -0.52512,0.0302 -0.95569,0.1086 -1.22701,0.16562 -0.004,7.7e-4 -0.007,0.002 -0.011,0.002 -0.40064,0.0849 -0.73564,0.18422 -0.96113,0.25556 -0.34721,0.11029 -0.64286,0.22073 -0.84487,0.29792 -0.37398,0.14307 -0.62912,0.24785 -0.77428,0.30267 -0.0822,0.031 -0.0837,0.0297 -0.0456,0.0179 0.0253,-0.008 0.16152,-0.0502 0.36526,-0.091 0.007,-0.001 0.0138,-0.003 0.0207,-0.004 0.0901,-0.0177 0.0663,-0.0134 -0.0703,0.012 -1.84125,0.33074 -3.65722,0.69398 -5.42653,1.05975 -2.5946,0.53632 -5.11736,1.08269 -7.58333,1.56844 -0.78264,0.15417 -1.55735,0.30193 -2.32701,0.44186 0.0103,-0.002 -0.0352,0.006 -0.13153,0.0184 -0.14298,0.0183 -0.31388,0.0365 -0.52501,0.0562 -0.31563,0.0293 -0.64923,0.0549 -1.00767,0.0796 -0.70849,0.0486 -1.4331,0.0872 -2.19664,0.12542 -0.20032,0.0101 -0.43496,0.0216 -0.66348,0.034 -0.003,1.8e-4 -0.007,3.6e-4 -0.0101,5.5e-4 -0.0577,0.003 -0.20537,0.0111 -0.35916,0.0226 -0.0291,0.002 -0.0582,0.005 -0.0873,0.007 0.14136,-0.0125 -0.0804,-0.0166 -0.64516,0.0836 -1.7629,0.31276 -3.57218,0.68434 -5.0514,1.69307 -0.73961,0.50437 -1.38307,1.15655 -1.84233,1.92498 -0.45927,0.76843 -0.72997,1.65039 -0.76715,2.54483 -0.0372,0.89444 0.15938,1.79584 0.55336,2.5997 0.39398,0.80385 0.98124,1.5071 1.67665,2.07085 1.3908,1.12751 3.1635,1.64668 4.89475,2.10321 0.57255,0.15098 1.03665,0.18987 1.21081,0.20288 0.2019,0.0151 0.19906,0.0154 -0.0103,-0.001 l 0.23532,0.0143 c 0.26968,0.0115 0.41841,0.009 0.44755,0.009 0.008,5e-5 0.0151,1e-4 0.0227,1.3e-4 0.0746,2.9e-4 0.30709,0.002 0.56582,-0.008 0.51635,-0.0196 0.98,-0.066 1.30017,-0.10038 0.005,-4.9e-4 0.009,-9.9e-4 0.0139,-0.001 0.61922,-0.0677 1.20892,-0.15071 1.73106,-0.22813 0.68081,-0.10146 1.34291,-0.20935 1.97887,-0.31638 0.95101,-0.16033 1.89036,-0.32707 2.80779,-0.49265 1.40777,-0.25432 2.81719,-0.51603 4.19022,-0.77006 1.41119,-0.2611 2.79168,-0.51617 4.17168,-0.76308 0.92949,-0.16618 1.84034,-0.3255 2.74352,-0.47525 0.62986,-0.10429 1.23907,-0.20124 1.8374,-0.28865 0.49976,-0.0727 0.95143,-0.13349 1.37998,-0.18033 0.29386,-0.0316 0.47667,-0.0465 0.61455,-0.0525 l -0.0197,8.3e-4 c 0.0777,-0.003 0.0323,0.004 -0.13381,-0.006 -0.0109,-6.2e-4 -0.0218,-0.001 -0.0327,-0.002 -0.0247,-0.002 -0.35308,-0.0187 -0.78591,-0.11578 -0.043,-0.01 -0.0858,-0.0197 -0.12861,-0.0302 0.008,0.002 0.0165,0.004 0.0248,0.006 l -0.22574,-0.0596 c 0.008,0.002 0.0154,0.004 0.0231,0.007 l -0.25434,-0.0775 c 0.007,0.002 0.0143,0.005 0.0215,0.007 l -0.28714,-0.10121 c 0.007,0.002 0.0132,0.005 0.0198,0.007 l -0.32436,-0.13268 c 0.006,0.003 0.0121,0.005 0.0181,0.008 l -0.36568,-0.17453 c 0.005,0.003 0.0109,0.006 0.0164,0.008 l -0.40984,-0.22997 c 0.005,0.003 0.01,0.006 0.0147,0.009 l -0.45391,-0.30258 c 0.004,0.003 0.009,0.006 0.0129,0.009 l -0.49225,-0.39545 c 0.004,0.003 0.007,0.007 0.0112,0.01 l -0.51574,-0.50934 c 0.003,0.003 0.006,0.007 0.009,0.0104 l -0.512,-0.63956 c 0.003,0.004 0.005,0.007 0.008,0.0109 l -0.46844,-0.77267 c 0.002,0.004 0.004,0.008 0.006,0.0114 l -0.20436,-0.4334 c 0.0363,0.0848 0.0904,0.23293 0.15621,0.47649 0.071,0.26343 0.13813,0.57533 0.20259,0.94916 0.0696,0.40466 0.12862,0.84071 0.18142,1.31605 0.0656,0.5922 0.11749,1.2095 0.16349,1.86241 0.0621,0.88433 0.10986,1.78298 0.16056,2.73519 0.0584,1.09795 0.11973,2.26208 0.20694,3.43921 0.065,0.87547 0.14588,1.78307 0.25795,2.71007 0.0905,0.74691 0.20301,1.52258 0.35139,2.31654 0.13451,0.71858 0.30211,1.47355 0.52104,2.24862 0.20626,0.72916 0.46631,1.50715 0.80761,2.30349 0.25607,0.59697 0.56517,1.22154 0.9449,1.85019 0.0997,0.16507 0.20366,0.32935 0.31239,0.49297 0.0819,0.1232 0.16622,0.24566 0.25318,0.36732 0.007,0.0105 0.015,0.0209 0.0226,0.0314 0.0144,0.0199 0.0286,0.0396 0.0428,0.0591 0.0153,0.0211 0.0306,0.0421 0.0461,0.063 0.0146,0.0196 0.029,0.0391 0.0433,0.0584 0.0157,0.0212 0.0316,0.0423 0.0475,0.0633 0.0148,0.0194 0.0294,0.0386 0.0439,0.0577 0.0162,0.0213 0.0325,0.0425 0.049,0.0636 0.015,0.0192 0.0298,0.0382 0.0444,0.057 0.0167,0.0214 0.0335,0.0427 0.0504,0.0639 0.0152,0.0189 0.0301,0.0377 0.045,0.0562 0.0172,0.0215 0.0345,0.0428 0.0519,0.0641 0.0154,0.0187 0.0305,0.0372 0.0455,0.0555 0.0177,0.0215 0.0355,0.043 0.0534,0.0643 0.0156,0.0185 0.0309,0.0367 0.0461,0.0548 0.0182,0.0216 0.0365,0.0431 0.0549,0.0644 0.0158,0.0182 0.0313,0.0363 0.0467,0.054 0.0187,0.0216 0.0375,0.0431 0.0564,0.0645 0.016,0.018 0.0317,0.0358 0.0472,0.0533 0.0192,0.0216 0.0385,0.0431 0.058,0.0645 0.0162,0.0178 0.0321,0.0353 0.0478,0.0525 0.0197,0.0216 0.0395,0.0431 0.0595,0.0645 0.0164,0.0175 0.0325,0.0348 0.0484,0.0518 0.0202,0.0216 0.0406,0.0431 0.0611,0.0645 0.0166,0.0173 0.033,0.0343 0.049,0.051 0.0207,0.0216 0.0416,0.043 0.0626,0.0644 0.0169,0.0171 0.0334,0.0338 0.0496,0.0503 a 6.6274951,6.6274951 90 0 0 9.43644,-9.30852 c -0.006,-0.006 -0.012,-0.0122 -0.0181,-0.0183 0.025,0.0261 0.019,0.0198 0.0128,0.0134 0.0242,0.0259 0.0181,0.0193 0.0119,0.0127 0.0234,0.0257 0.0172,0.0189 0.0109,0.012 0.0225,0.0254 0.0163,0.0183 0.01,0.0112 0.0217,0.0251 0.0154,0.0178 0.009,0.0104 0.0209,0.0248 0.0145,0.0172 0.008,0.01 0.0201,0.0245 0.0136,0.0166 0.007,0.009 0.0193,0.0241 0.0127,0.016 0.006,0.008 0.0185,0.0237 0.0119,0.0153 0.005,0.007 0.0177,0.0233 0.0111,0.0145 0.004,0.006 0.0169,0.0228 0.0102,0.0138 0.004,0.005 -0.007,-0.009 -0.0132,-0.0183 -0.0199,-0.0275 l 0.0226,0.0314 c 0.002,0.003 0.003,0.005 0.003,0.004 -2.2e-4,-3.4e-4 -0.002,-0.004 -0.007,-0.0105 -0.0174,-0.0288 -0.0555,-0.0974 -0.108,-0.21982 -0.071,-0.16574 -0.15062,-0.388 -0.23479,-0.68553 -0.0881,-0.31189 -0.17005,-0.66799 -0.24719,-1.08007 -0.0845,-0.4523 -0.15692,-0.93931 -0.22146,-1.47204 -0.0799,-0.66113 -0.143,-1.3541 -0.19825,-2.09812 -0.0751,-1.01416 -0.12948,-2.0377 -0.18936,-3.1632 -0.0495,-0.92983 -0.10302,-1.94327 -0.17451,-2.96102 -0.0535,-0.7593 -0.1198,-1.565 -0.21165,-2.39379 -0.0737,-0.66325 -0.16677,-1.37085 -0.29289,-2.10406 -0.11478,-0.66566 -0.26332,-1.39339 -0.46824,-2.15354 -0.18293,-0.67692 -0.42625,-1.44084 -0.76782,-2.23874 -0.0629,-0.14688 -0.13104,-0.29145 -0.20436,-0.4334 -0.002,-0.004 -0.004,-0.008 -0.006,-0.0114 -0.13839,-0.2679 -0.29491,-0.52608 -0.46844,-0.77267 -0.003,-0.004 -0.005,-0.007 -0.008,-0.0109 -0.15732,-0.22353 -0.32832,-0.43714 -0.51201,-0.63956 -0.003,-0.003 -0.006,-0.007 -0.009,-0.0104 -0.16249,-0.17906 -0.33467,-0.3491 -0.51574,-0.50934 -0.004,-0.003 -0.007,-0.007 -0.0112,-0.01 -0.15771,-0.13957 -0.32198,-0.27154 -0.49225,-0.39546 -0.004,-0.003 -0.009,-0.006 -0.0129,-0.009 -0.14708,-0.10705 -0.29852,-0.208 -0.45391,-0.30258 -0.005,-0.003 -0.01,-0.006 -0.0147,-0.009 -0.13385,-0.0815 -0.27055,-0.15818 -0.40984,-0.22997 -0.005,-0.003 -0.0109,-0.006 -0.0164,-0.008 -0.12009,-0.0619 -0.24204,-0.12009 -0.36568,-0.17452 -0.006,-0.003 -0.012,-0.005 -0.0181,-0.008 -0.10693,-0.0471 -0.21509,-0.0913 -0.32436,-0.13267 -0.007,-0.002 -0.0131,-0.005 -0.0198,-0.007 -0.0949,-0.0359 -0.19067,-0.0697 -0.28715,-0.10121 -0.007,-0.002 -0.0143,-0.005 -0.0214,-0.007 -0.0842,-0.0275 -0.16904,-0.0534 -0.25433,-0.0775 -0.008,-0.002 -0.0154,-0.004 -0.0231,-0.007 -0.0749,-0.0212 -0.15014,-0.0411 -0.22573,-0.0596 -0.008,-0.002 -0.0165,-0.004 -0.0248,-0.006 -0.0428,-0.0105 -0.0856,-0.0205 -0.12861,-0.0302 -0.60056,-0.13469 -1.10071,-0.16811 -1.29796,-0.18029 -0.0109,-6.7e-4 -0.0218,-0.001 -0.0327,-0.002 -0.48892,-0.0278 -0.90891,-0.0146 -1.15598,-0.005 -0.007,2.7e-4 -0.0131,5.5e-4 -0.0197,8.3e-4 -0.55441,0.0242 -1.06175,0.0737 -1.45938,0.11646 -0.003,3.6e-4 -0.007,7.2e-4 -0.0101,0.001 -0.65273,0.0712 -1.28004,0.157 -1.85991,0.24139 -0.71274,0.10413 -1.41045,0.21546 -2.09147,0.32822 -0.9802,0.16252 -1.95072,0.33242 -2.91048,0.50401 -1.42483,0.25494 -2.84186,0.5168 -4.24945,0.77723 -1.38659,0.25653 -2.76198,0.51192 -4.13423,0.75982 -0.89351,0.16127 -1.77668,0.31792 -2.65411,0.46583 -0.59022,0.0993 -1.16314,0.19242 -1.72608,0.27631 -0.45091,0.0669 -0.84649,0.12129 -1.21662,0.16192 -0.235,0.0251 -0.33324,0.0317 -0.38156,0.0335 -0.005,1.9e-4 -0.0102,3.9e-4 -0.0154,5.9e-4 0.0725,-0.003 0.11977,-0.002 0.004,-0.002 l 0.0227,1.3e-4 c -0.159,-0.001 -0.0597,-0.001 0.0213,0.002 0.0785,0.003 0.15698,0.008 0.23533,0.0143 -0.21918,-0.0172 -0.23195,-0.0172 -0.04,-0.003 0.1643,0.0123 0.61859,0.05 1.18155,0.19843 1.73049,0.45634 3.50238,0.97507 4.89313,2.10143 0.69537,0.56317 1.28282,1.26571 1.67724,2.06892 0.39441,0.80322 0.59166,1.70405 0.55526,2.59813 -0.0364,0.89409 -0.30624,1.77591 -0.76473,2.54436 -0.45848,0.76844 -1.10126,1.42078 -1.84031,1.92528 -1.47809,1.00901 -3.28667,1.38064 -5.0488,1.69327 -0.46448,0.0824 -0.65391,0.0859 -0.55462,0.0739 -0.0515,0.003 -0.0168,8.6e-4 0.065,-0.004 0.19332,-0.0105 0.37938,-0.0195 0.60552,-0.031 0.77636,-0.0389 1.60131,-0.0824 2.43887,-0.13984 0.42115,-0.029 0.86758,-0.0628 1.32805,-0.10553 0.2961,-0.0276 0.63026,-0.0617 0.98503,-0.10713 0.21707,-0.028 0.49726,-0.0668 0.80896,-0.12328 0.84934,-0.15442 1.68871,-0.3146 2.52253,-0.47885 2.62962,-0.51799 5.19313,-1.07378 7.70481,-1.59296 1.72509,-0.35663 3.42019,-0.69501 5.10457,-0.99733 0.013,-0.002 0.026,-0.005 0.0391,-0.007 -0.21552,0.04 0.19507,-0.0355 0.22784,-0.042 0.007,-0.001 0.0138,-0.003 0.0207,-0.004 0.40961,-0.0819 0.74853,-0.18046 0.96671,-0.24805 0.32748,-0.10194 0.60314,-0.2031 0.79244,-0.27442 0.39342,-0.14857 0.66674,-0.26137 0.82992,-0.3238 0.1019,-0.0389 0.1427,-0.0518 0.11686,-0.0436 -0.0207,0.007 -0.11495,0.0377 -0.29658,0.0762 -0.004,7.8e-4 -0.007,0.002 -0.011,0.002 -0.11023,0.0232 -0.37731,0.0751 -0.73739,0.0958 -0.005,3.1e-4 -0.0109,6.2e-4 -0.0164,9.2e-4 -0.25802,0.0142 -0.79947,0.0271 -1.47834,-0.10956 -0.5981,-0.12098 -1.51742,-0.39896 -2.4577,-1.08738 -0.96919,-0.7015 -1.65992,-1.64015 -2.07453,-2.60216 -0.43763,-1.01599 -0.49669,-1.89296 -0.5039,-2.32044 l 0.002,0.0809 c -0.021,-0.72178 0.0878,-1.2858 0.15787,-1.58496 0.002,-0.0104 0.005,-0.0209 0.007,-0.0314 0.13988,-0.5847 0.33755,-0.99139 0.35911,-1.03688 0.005,-0.0102 0.01,-0.0205 0.0146,-0.0307 0.092,-0.1917 0.14712,-0.2741 0.13901,-0.26103 l 0.006,-0.0101 c 8.1e-4,-0.001 -0.0254,0.0397 -0.0828,0.12043 -0.0798,0.11193 -0.18071,0.24605 -0.31063,0.41229 -0.17991,0.22999 -0.37782,0.47283 -0.59829,0.73715 -0.37302,0.44692 -0.76585,0.90111 -1.19157,1.38873 -0.22876,0.26211 -0.47029,0.53705 -0.72296,0.82774 -0.12694,0.14624 -0.28128,0.32441 -0.44036,0.5139 -0.003,0.003 -0.005,0.006 -0.008,0.009 -0.0663,0.0792 -0.21123,0.25223 -0.36645,0.45446 -0.0146,0.019 -0.029,0.038 -0.0434,0.0571 -0.29955,0.39914 -0.59896,0.79341 -0.89927,1.18279 -1.3614,1.76568 -2.76912,3.47759 -4.23203,5.12463 -1.3884,1.56313 -2.82504,3.06601 -4.31508,4.4962 -1.41288,1.35613 -2.87299,2.64597 -4.38209,3.85739 -1.43336,1.1507 -2.9113,2.23079 -4.43209,3.22942 -1.45013,0.95233 -2.94078,1.83152 -4.46748,2.62902 -1.45748,0.76147 -2.95037,1.4498 -4.47248,2.05932 -0.12833,0.0504 -0.27715,0.1088 -0.4261,0.16727 -0.10802,0.0408 -0.25622,0.0968 -0.40457,0.15282 -0.10703,0.0388 -0.25464,0.0924 -0.40239,0.14605 -0.10609,0.0369 -0.25312,0.0881 -0.40027,0.1394 -0.10519,0.0351 -0.25164,0.084 -0.39822,0.13286 -0.10431,0.0333 -0.25021,0.0798 -0.39622,0.12645 -0.10349,0.0315 -0.24883,0.0758 -0.39429,0.12013 -0.1027,0.0298 -0.24751,0.0719 -0.39242,0.11392 -0.10195,0.0281 -0.24624,0.068 -0.39063,0.10782 -0.10124,0.0265 -0.24502,0.0641 -0.3889,0.10182 -0.10057,0.0249 -0.24385,0.0604 -0.38723,0.0959 -0.0999,0.0234 -0.24275,0.0567 -0.38565,0.0901 -0.0994,0.0218 -0.24171,0.0531 -0.38414,0.0844 -0.0988,0.0204 -0.24072,0.0496 -0.38269,0.0788 -0.0983,0.0189 -0.2398,0.0461 -0.38133,0.0733 -0.0979,0.0175 -0.23893,0.0427 -0.38003,0.0679 -0.0975,0.0161 -0.23813,0.0393 -0.37882,0.0625 -0.0972,0.0147 -0.23738,0.036 -0.37767,0.0573 -0.0969,0.0134 -0.23669,0.0327 -0.3766,0.0521 -0.0966,0.0121 -0.23607,0.0295 -0.3756,0.0469 -0.0964,0.0108 -0.23551,0.0264 -0.37468,0.0419 -0.0962,0.01 -0.235,0.0232 -0.37383,0.0369 -0.0961,0.008 -0.23454,0.0202 -0.37305,0.0321 -0.096,0.007 -0.23415,0.0171 -0.37234,0.0272 -0.096,0.006 -0.23381,0.0141 -0.3717,0.0225 -0.096,0.005 -0.23353,0.0112 -0.37112,0.0178 -0.096,0.003 -0.2333,0.008 -0.37062,0.0131 -0.0961,0.002 -0.23312,0.005 -0.37017,0.009 -0.0962,0.001 -0.23299,0.003 -0.36979,0.004 -0.0964,-1.2e-4 -0.23291,-2.9e-4 -0.36947,-4.6e-4 -0.0966,-0.001 -0.23287,-0.003 -0.3692,-0.005 -0.0968,-0.002 -0.23288,-0.006 -0.36899,-0.009 -0.0971,-0.004 -0.23293,-0.009 -0.36883,-0.0136 -0.0974,-0.005 -0.23302,-0.0113 -0.36873,-0.0178 -0.0977,-0.006 -0.23315,-0.0139 -0.36867,-0.0221 -0.098,-0.007 -0.23331,-0.0166 -0.36866,-0.0262 -0.0984,-0.008 -0.23351,-0.0192 -0.36869,-0.0304 -0.0988,-0.009 -0.23375,-0.0218 -0.36876,-0.0344 -0.0992,-0.0103 -0.23402,-0.0244 -0.36888,-0.0385 -0.0996,-0.0115 -0.23431,-0.027 -0.36903,-0.0425 -0.10007,-0.0126 -0.23463,-0.0295 -0.36921,-0.0464 -0.10055,-0.0137 -0.23498,-0.032 -0.36943,-0.0503 -0.10104,-0.0148 -0.23535,-0.0345 -0.36968,-0.0542 -0.10155,-0.0159 -0.23574,-0.037 -0.36995,-0.058 -0.10207,-0.017 -0.23616,-0.0394 -0.37025,-0.0618 -0.10261,-0.0181 -0.23659,-0.0418 -0.37058,-0.0655 -0.10315,-0.0192 -0.23704,-0.0442 -0.37093,-0.0691 -0.10371,-0.0203 -0.2375,-0.0466 -0.3713,-0.0728 -0.10427,-0.0214 -0.23798,-0.0489 -0.37169,-0.0764 -0.10484,-0.0225 -0.23847,-0.0512 -0.37209,-0.0799 -0.10542,-0.0236 -0.23897,-0.0535 -0.37251,-0.0834 -0.10601,-0.0247 -0.23948,-0.0557 -0.37295,-0.0868 -0.10659,-0.0258 -0.24,-0.058 -0.37339,-0.0902 -0.10719,-0.0268 -0.24053,-0.0602 -0.37385,-0.0935 -0.10779,-0.0279 -0.24107,-0.0624 -0.37433,-0.0968 -0.10839,-0.0289 -0.2416,-0.0645 -0.3748,-0.10006 -0.10899,-0.03 -0.24215,-0.0666 -0.37529,-0.10325 -0.10959,-0.031 -0.2427,-0.0687 -0.37578,-0.10636 -0.11021,-0.0321 -0.24326,-0.0708 -0.37629,-0.10944 -0.1108,-0.0331 -0.24381,-0.0728 -0.37679,-0.11245 -0.11141,-0.0341 -0.24437,-0.0747 -0.37731,-0.11541 -0.11201,-0.0351 -0.24493,-0.0767 -0.37782,-0.11831 -0.11262,-0.0361 -0.2455,-0.0786 -0.37835,-0.12114 -0.11323,-0.037 -0.24606,-0.0805 -0.37887,-0.12393 -0.11382,-0.038 -0.24663,-0.0823 -0.3794,-0.12664 -0.11443,-0.0389 -0.2472,-0.0841 -0.37993,-0.1293 -0.11503,-0.0399 -0.24777,-0.0859 -0.38047,-0.13189 -0.11562,-0.0408 -0.24833,-0.0876 -0.381,-0.13443 -0.11623,-0.0417 -0.24891,-0.0893 -0.38155,-0.13689 -0.11681,-0.0426 -0.24947,-0.0909 -0.38209,-0.1393 -0.117399,-0.0435 -0.250042,-0.0925 -0.382633,-0.14163 -0.117994,-0.0443 -0.250616,-0.0941 -0.383182,-0.1439 -0.118577,-0.0452 -0.251184,-0.0956 -0.383734,-0.1461 -0.119161,-0.046 -0.251754,-0.0971 -0.384287,-0.14824 -0.119745,-0.0468 -0.252326,-0.0985 -0.384844,-0.1503 -0.120327,-0.0476 -0.252898,-0.0999 -0.385403,-0.15229 -0.120908,-0.0483 -0.253472,-0.10128 -0.385967,-0.15423 -0.121487,-0.049 -0.254047,-0.10257 -0.386534,-0.15607 -0.122065,-0.0498 -0.254623,-0.10383 -0.387105,-0.15786 -0.122648,-0.0505 -0.255203,-0.10504 -0.387681,-0.15957 -0.12322,-0.0512 -0.25578,-0.1062 -0.388261,-0.16121 -0.123796,-0.0518 -0.256363,-0.10731 -0.388846,-0.16277 -0.132473,-0.0559 -0.264864,-0.11172 -0.397168,-0.16752 -1.422196,-0.60205 -2.855202,-1.23214 -4.316947,-1.88027 -2.335637,-1.03538 -4.792156,-2.13961 -7.269287,-3.1784 -0.0032,-0.001 -0.0064,-0.003 -0.0096,-0.004 -0.131574,-0.0549 -0.263054,-0.10984 -0.394439,-0.16469 -0.0062,-0.003 -0.01243,-0.005 -0.01866,-0.008 -0.131513,-0.0544 -0.262931,-0.10884 -0.39425,-0.1632 -0.0066,-0.003 -0.01326,-0.005 -0.0199,-0.008 -0.131452,-0.0539 -0.262806,-0.10779 -0.394058,-0.16162 -0.0071,-0.003 -0.01411,-0.006 -0.02117,-0.009 -0.131397,-0.0534 -0.262693,-0.10668 -0.393885,-0.15996 -0.0075,-0.003 -0.01496,-0.006 -0.02245,-0.009 -0.131349,-0.0528 -0.262593,-0.10553 -0.39373,-0.15824 -0.0079,-0.003 -0.01582,-0.006 -0.02374,-0.009 -0.131299,-0.0522 -0.26249,-0.10432 -0.393571,-0.15641 -0.0083,-0.003 -0.01669,-0.007 -0.02504,-0.01 -0.131257,-0.0515 -0.262404,-0.10305 -0.393437,-0.1545 -0.0088,-0.003 -0.01757,-0.007 -0.02637,-0.0103 -0.131217,-0.0509 -0.262321,-0.10173 -0.393308,-0.15252 -0.0092,-0.004 -0.01847,-0.007 -0.02771,-0.0107 -0.131179,-0.0502 -0.262241,-0.10034 -0.393183,-0.15045 -0.0097,-0.004 -0.01937,-0.007 -0.02908,-0.011 -0.131147,-0.0495 -0.262173,-0.0989 -0.393077,-0.14829 -0.01014,-0.004 -0.02029,-0.008 -0.03045,-0.0114 -0.13112,-0.0487 -0.262116,-0.0974 -0.392987,-0.14606 -0.0106,-0.004 -0.02122,-0.008 -0.03184,-0.0117 -0.131091,-0.048 -0.262055,-0.0959 -0.392889,-0.14375 -0.01107,-0.004 -0.02216,-0.008 -0.03325,-0.0121 -0.131073,-0.0472 -0.262017,-0.0943 -0.392828,-0.14135 -0.01155,-0.004 -0.0231,-0.008 -0.03467,-0.0124 -0.131054,-0.0463 -0.261974,-0.0926 -0.392759,-0.13887 -0.01203,-0.004 -0.02407,-0.008 -0.03613,-0.0127 -0.131039,-0.0455 -0.261943,-0.0909 -0.392707,-0.1363 -0.01252,-0.004 -0.02505,-0.009 -0.03759,-0.0129 -0.131032,-0.0446 -0.261924,-0.0891 -0.392673,-0.13365 -0.01301,-0.004 -0.02603,-0.009 -0.03907,-0.0132 -0.131021,-0.0437 -0.261899,-0.0873 -0.39263,-0.13092 -0.01351,-0.005 -0.02703,-0.009 -0.04057,-0.0134 -0.131022,-0.0427 -0.261898,-0.0855 -0.392624,-0.12812 -0.01401,-0.005 -0.02804,-0.009 -0.04209,-0.0136 -0.131024,-0.0418 -0.261897,-0.0835 -0.392617,-0.12522 -0.01452,-0.005 -0.02906,-0.009 -0.04362,-0.0137 -0.131027,-0.0408 -0.261899,-0.0815 -0.392614,-0.12224 -0.01504,-0.005 -0.0301,-0.009 -0.04518,-0.0139 -0.131037,-0.0398 -0.261916,-0.0795 -0.392635,-0.11918 -0.01557,-0.005 -0.03115,-0.009 -0.04675,-0.014 -0.131045,-0.0387 -0.261928,-0.0774 -0.392647,-0.11603 -0.01609,-0.005 -0.03221,-0.009 -0.04834,-0.0141 -0.131065,-0.0377 -0.261965,-0.0753 -0.392697,-0.11281 -0.01662,-0.005 -0.03327,-0.009 -0.04993,-0.0141 -0.131083,-0.0366 -0.261997,-0.073 -0.392738,-0.10951 -0.01716,-0.005 -0.03435,-0.01 -0.05155,-0.0142 -0.131107,-0.0354 -0.262041,-0.0708 -0.392798,-0.10611 -0.01771,-0.005 -0.03543,-0.01 -0.05318,-0.0141 -0.131136,-0.0343 -0.262095,-0.0685 -0.392873,-0.10265 -0.01825,-0.005 -0.03653,-0.009 -0.05482,-0.0141 -0.131165,-0.0331 -0.262149,-0.0661 -0.392948,-0.0991 -0.0188,-0.005 -0.03763,-0.009 -0.05647,-0.014 -0.131202,-0.0319 -0.262218,-0.0637 -0.393046,-0.0954 -0.01936,-0.005 -0.03873,-0.009 -0.05813,-0.0138 -0.131241,-0.0306 -0.262292,-0.0612 -0.39315,-0.0917 -0.01991,-0.005 -0.03985,-0.009 -0.05981,-0.0137 -0.131279,-0.0293 -0.262363,-0.0587 -0.39325,-0.0879 -0.02047,-0.005 -0.04097,-0.009 -0.06148,-0.0134 -0.131329,-0.0281 -0.26246,-0.0561 -0.393388,-0.084 -0.02103,-0.004 -0.04209,-0.009 -0.06316,-0.0132 -0.131375,-0.0267 -0.262547,-0.0534 -0.393512,-0.0801 -0.02159,-0.004 -0.04321,-0.009 -0.06485,-0.0129 -0.131433,-0.0254 -0.262658,-0.0507 -0.393672,-0.076 -0.02215,-0.004 -0.04433,-0.008 -0.06652,-0.0125 -0.131488,-0.024 -0.262764,-0.048 -0.393824,-0.0719 -0.02272,-0.004 -0.04545,-0.008 -0.06821,-0.0121 -0.131552,-0.0226 -0.262886,-0.0452 -0.394,-0.0677 -0.02327,-0.004 -0.04657,-0.008 -0.06988,-0.0116 -0.131617,-0.0212 -0.263011,-0.0423 -0.39418,-0.0634 -0.02383,-0.004 -0.04768,-0.008 -0.07155,-0.0111 -0.131681,-0.0197 -0.263135,-0.0394 -0.394359,-0.059 -0.02438,-0.004 -0.04878,-0.007 -0.07321,-0.0105 -0.131759,-0.0182 -0.263284,-0.0364 -0.394574,-0.0545 -0.02493,-0.003 -0.04988,-0.007 -0.07484,-0.01 -0.131835,-0.0167 -0.263432,-0.0333 -0.394787,-0.05 -0.02547,-0.003 -0.05096,-0.006 -0.07646,-0.009 -0.131915,-0.0151 -0.263587,-0.0303 -0.395012,-0.0453 -0.026,-0.003 -0.05203,-0.006 -0.07806,-0.008 -0.132,-0.0136 -0.26375,-0.0271 -0.395248,-0.0406 -0.02653,-0.003 -0.05308,-0.005 -0.07965,-0.008 -0.132083,-0.012 -0.263912,-0.0239 -0.395482,-0.0358 -0.02705,-0.002 -0.05412,-0.005 -0.08119,-0.007 -0.132179,-0.0103 -0.264098,-0.0207 -0.395752,-0.031 -0.02756,-0.002 -0.05512,-0.004 -0.0827,-0.006 -0.132275,-0.009 -0.264283,-0.0174 -0.396021,-0.026 -0.02805,-0.002 -0.05611,-0.004 -0.08418,-0.005 -0.132374,-0.007 -0.264475,-0.014 -0.396301,-0.021 -0.02853,-0.002 -0.05707,-0.003 -0.08562,-0.004 -0.132475,-0.005 -0.264672,-0.0106 -0.396585,-0.0158 -0.029,-0.001 -0.058,-0.002 -0.08701,-0.003 -0.132585,-0.004 -0.264884,-0.007 -0.396893,-0.0106 -0.02944,-7.9e-4 -0.05889,-0.001 -0.08834,-0.002 -0.132695,-0.002 -0.265099,-0.004 -0.397206,-0.005 -0.02987,-4.1e-4 -0.05975,-6.1e-4 -0.08963,-6.1e-4 -0.13281,1e-5 -0.265322,2e-5 -0.39753,3e-5 -0.03029,0 -0.06057,2.1e-4 -0.09086,6.3e-4 -0.132929,0.002 -0.265553,0.004 -0.397866,0.005 -0.03068,4.2e-4 -0.06135,0.001 -0.09203,0.002 -0.133049,0.004 -0.265786,0.007 -0.398206,0.011 -0.03105,8.6e-4 -0.06209,0.002 -0.09312,0.003 -0.133178,0.006 -0.266036,0.0111 -0.398569,0.0166 -0.03139,0.001 -0.06277,0.003 -0.09414,0.005 -0.133309,0.007 -0.26629,0.0149 -0.398938,0.0223 -0.03171,0.002 -0.06341,0.004 -0.09509,0.006 -0.133443,0.009 -0.26655,0.0188 -0.399317,0.0281 -0.03201,0.002 -0.064,0.005 -0.09597,0.007 -0.133578,0.0114 -0.266812,0.0227 -0.399696,0.034 -0.03227,0.003 -0.06453,0.006 -0.09676,0.009 -0.133724,0.0134 -0.267095,0.0267 -0.400109,0.0399 -0.03251,0.003 -0.065,0.007 -0.09746,0.0105 -0.13387,0.0154 -0.267379,0.0307 -0.400521,0.046 -0.03272,0.004 -0.06541,0.008 -0.09807,0.012 -0.13402,0.0174 -0.26767,0.0348 -0.400945,0.0521 -0.0329,0.004 -0.06576,0.009 -0.09859,0.0136 -0.134175,0.0195 -0.26797,0.0389 -0.40138,0.0583 -0.03305,0.005 -0.06606,0.01 -0.09903,0.0152 -0.134329,0.0216 -0.268269,0.0431 -0.401814,0.0646 -0.03316,0.005 -0.06629,0.0109 -0.09936,0.0167 -0.134495,0.0237 -0.268591,0.0474 -0.402283,0.0709 -0.03324,0.006 -0.06644,0.012 -0.0996,0.0183 -0.134662,0.0259 -0.268913,0.0517 -0.402751,0.0774 -0.0333,0.006 -0.06654,0.013 -0.09974,0.02 -0.134831,0.0281 -0.269243,0.056 -0.403229,0.0839 -0.03332,0.007 -0.06658,0.0141 -0.09978,0.0216 -0.135002,0.0303 -0.269573,0.0604 -0.403708,0.0905 -0.0333,0.007 -0.06654,0.0152 -0.09972,0.0232 -0.135184,0.0325 -0.269926,0.0649 -0.40422,0.0972 -0.03325,0.008 -0.06644,0.0163 -0.09956,0.0248 -0.135367,0.0348 -0.27028,0.0694 -0.404733,0.10399 -0.03317,0.009 -0.06627,0.0173 -0.09931,0.0263 -0.135554,0.0371 -0.270641,0.074 -0.405256,0.11085 -0.03306,0.009 -0.06605,0.0183 -0.09896,0.0279 -0.135743,0.0394 -0.271006,0.0787 -0.405784,0.11779 -0.03291,0.01 -0.06575,0.0194 -0.09851,0.0294 -0.13594,0.0418 -0.271387,0.0834 -0.406335,0.12481 -0.03273,0.0101 -0.06539,0.0204 -0.09796,0.0309 -0.136139,0.0441 -0.271771,0.0881 -0.406891,0.13192 -0.03253,0.0105 -0.06497,0.0213 -0.09733,0.0324 -0.136343,0.0465 -0.272164,0.0929 -0.407459,0.13911 -0.03229,0.011 -0.0645,0.0223 -0.09661,0.0338 -0.136547,0.049 -0.272558,0.0978 -0.408026,0.14637 -0.03203,0.0115 -0.06396,0.0232 -0.09581,0.0352 -0.136763,0.0514 -0.272974,0.1027 -0.408626,0.15373 -0.03173,0.0119 -0.06337,0.0241 -0.09491,0.0365 -0.136979,0.054 -0.273391,0.10768 -0.409226,0.16118 -0.03141,0.0124 -0.06273,0.025 -0.09394,0.0378 -0.137201,0.0565 -0.273816,0.1127 -0.409839,0.16869 -0.03107,0.0128 -0.06204,0.0258 -0.09291,0.0391 -0.137425,0.059 -0.274246,0.11778 -0.410456,0.17629 -0.0307,0.0132 -0.06129,0.0266 -0.09179,0.0402 -0.137657,0.0616 -0.274691,0.12294 -0.411094,0.18398 -0.03031,0.0136 -0.06051,0.0274 -0.09061,0.0414 -0.137892,0.0642 -0.275141,0.12813 -0.41174,0.19175 -0.02989,0.0139 -0.05969,0.0281 -0.08937,0.0424 -0.138131,0.0669 -0.275599,0.13339 -0.412395,0.1996 -0.02947,0.0143 -0.05883,0.0287 -0.08808,0.0434 -0.138372,0.0695 -0.276059,0.13869 -0.413052,0.20752 -0.02902,0.0146 -0.05793,0.0294 -0.08673,0.0444 -0.138625,0.0722 -0.276541,0.14407 -0.41374,0.21555 -0.02855,0.0149 -0.057,0.03 -0.08534,0.0453 -0.138879,0.0749 -0.277025,0.14949 -0.414429,0.22363 -0.02808,0.0152 -0.05605,0.0305 -0.08391,0.0461 -0.139136,0.0777 -0.277514,0.15497 -0.415124,0.23181 -0.02759,0.0154 -0.05506,0.031 -0.08243,0.0468 -0.139403,0.0805 -0.27802,0.16051 -0.41584,0.24008 -0.02709,0.0156 -0.05406,0.0315 -0.08092,0.0475 -0.139673,0.0833 -0.27853,0.16611 -0.416563,0.24842 -0.02658,0.0159 -0.05304,0.0319 -0.07939,0.0481 -0.139946,0.0861 -0.279046,0.17176 -0.417291,0.25685 -0.02605,0.016 -0.052,0.0323 -0.07783,0.0486 -0.140228,0.089 -0.279578,0.17748 -0.418039,0.26537 -0.02553,0.0162 -0.05095,0.0326 -0.07626,0.0491 -0.140516,0.0919 -0.280117,0.18324 -0.418795,0.27396 -0.025,0.0164 -0.04989,0.0329 -0.07467,0.0496 -0.140809,0.0948 -0.280666,0.18906 -0.419562,0.28263 -0.02447,0.0165 -0.04882,0.0331 -0.07306,0.0499 -0.141108,0.0978 -0.281224,0.19496 -0.420339,0.29139 -0.02393,0.0166 -0.04775,0.0333 -0.07146,0.0502 -0.141412,0.10082 -0.281791,0.2009 -0.421123,0.30023 -0.02339,0.0167 -0.04668,0.0335 -0.06985,0.0505 -0.141726,0.10384 -0.282373,0.2069 -0.421927,0.30915 -0.02286,0.0168 -0.0456,0.0336 -0.06824,0.0507 -0.142045,0.10691 -0.282961,0.21297 -0.422734,0.31816 -0.02232,0.0168 -0.04453,0.0337 -0.06663,0.0508 -0.142374,0.11 -0.283565,0.21908 -0.423559,0.32725 -0.02178,0.0168 -0.04346,0.0338 -0.06504,0.0509 -0.142709,0.11313 -0.284178,0.22528 -0.424392,0.33643 -0.02125,0.0168 -0.0424,0.0338 -0.06345,0.0509 -0.143055,0.11629 -0.284805,0.23152 -0.425236,0.34567 -0.02073,0.0168 -0.04135,0.0338 -0.06187,0.0509 -0.143409,0.11949 -0.285445,0.23783 -0.426091,0.35501 -0.0202,0.0168 -0.04031,0.0338 -0.06031,0.0509 -0.143773,0.12272 -0.286098,0.2442 -0.426956,0.36443 -0.01969,0.0168 -0.03928,0.0337 -0.05877,0.0508 -0.144149,0.12599 -0.286767,0.25064 -0.427833,0.37393 -0.01918,0.0168 -0.03826,0.0336 -0.05724,0.0506 -0.144538,0.1293 -0.287452,0.25714 -0.428721,0.38351 -0.01868,0.0167 -0.03725,0.0335 -0.05574,0.0504 -0.144942,0.13265 -0.288156,0.26371 -0.429621,0.39318 -0.01818,0.0166 -0.03627,0.0334 -0.05426,0.0502 -0.14536,0.13605 -0.288878,0.27036 -0.43053,0.40293 -0.01769,0.0166 -0.03529,0.0332 -0.0528,0.05 -0.145798,0.13948 -0.289623,0.27707 -0.431452,0.41276 -0.01721,0.0165 -0.03434,0.033 -0.05137,0.0497 -0.146256,0.14297 -0.290393,0.28387 -0.432384,0.42267 -0.01674,0.0164 -0.0334,0.0328 -0.04996,0.0494 -0.146739,0.14652 -0.291191,0.29076 -0.433327,0.43268 -0.01628,0.0162 -0.03247,0.0326 -0.04858,0.049 -0.0815,0.0831 -0.162249,0.16541 -0.242228,0.24695 -0.06417,0.0654 -0.128183,0.13068 -0.192054,0.1958 -0.01583,0.0161 -0.03157,0.0324 -0.04723,0.0487 -0.14585,0.15177 -0.290934,0.30274 -0.435247,0.45292 -0.01539,0.016 -0.03069,0.0321 -0.04591,0.0483 -0.146198,0.15522 -0.291607,0.30961 -0.436224,0.46316 -0.01495,0.0159 -0.02983,0.0318 -0.04462,0.0478 -0.14655,0.15871 -0.292288,0.31654 -0.437211,0.47349 -0.01453,0.0157 -0.02898,0.0315 -0.04336,0.0474 -0.146908,0.16222 -0.292979,0.32352 -0.43821,0.4839 -0.01412,0.0156 -0.02816,0.0312 -0.04212,0.047 -0.147269,0.16577 -0.293677,0.33056 -0.439219,0.49439 -0.01371,0.0154 -0.02735,0.0309 -0.04092,0.0465 -0.147638,0.16934 -0.294386,0.33767 -0.44024,0.50497 -0.01332,0.0153 -0.02657,0.0306 -0.03974,0.046 -0.14801,0.17295 -0.295102,0.34482 -0.441271,0.51562 -0.01294,0.0151 -0.0258,0.0303 -0.0386,0.0455 -0.148389,0.17659 -0.295828,0.35205 -0.442315,0.52637 -0.01256,0.0149 -0.02506,0.0299 -0.03748,0.045 -0.148772,0.18025 -0.296563,0.35931 -0.443368,0.53718 -0.0122,0.0148 -0.02433,0.0296 -0.0364,0.0445 -0.149162,0.18396 -0.297308,0.36665 -0.444433,0.54809 -0.01184,0.0146 -0.02363,0.0293 -0.03534,0.044 -0.149557,0.18768 -0.298062,0.37405 -0.445509,0.55908 -0.0115,0.0144 -0.02294,0.0289 -0.03432,0.0434 -0.149959,0.19145 -0.298826,0.3815 -0.446596,0.57015 -0.01116,0.0143 -0.02227,0.0285 -0.03332,0.0429 -0.150367,0.19524 -0.2996,0.38901 -0.447695,0.5813 -0.01084,0.0141 -0.02162,0.0282 -0.03235,0.0423 -0.150781,0.19907 -0.300384,0.39659 -0.448804,0.59254 -0.01052,0.0139 -0.02099,0.0278 -0.0314,0.0418 -0.151202,0.20293 -0.301178,0.40422 -0.449923,0.60386 -0.01022,0.0137 -0.02038,0.0275 -0.03049,0.0412 -0.151631,0.20683 -0.301985,0.41192 -0.451055,0.61525 -0.0099,0.0135 -0.01979,0.0271 -0.0296,0.0407 -0.152067,0.21077 -0.302802,0.41968 -0.452197,0.62674 -0.0096,0.0134 -0.01921,0.0267 -0.02874,0.0401 -0.152512,0.21473 -0.303631,0.4275 -0.45335,0.6383 -0.0093,0.0132 -0.01865,0.0264 -0.0279,0.0396 -0.152966,0.21874 -0.304473,0.43539 -0.454515,0.64995 -0.0091,0.013 -0.01811,0.026 -0.02709,0.039 -0.153429,0.22278 -0.305328,0.44335 -0.45569,0.66168 -0.0088,0.0128 -0.01758,0.0256 -0.0263,0.0385 -0.153902,0.22687 -0.306197,0.45138 -0.456876,0.6735 -0.0086,0.0126 -0.01707,0.0252 -0.02554,0.0379 -0.154387,0.231 -0.307082,0.45947 -0.458074,0.68539 -0.0083,0.0124 -0.01657,0.0249 -0.0248,0.0374 -0.154885,0.23517 -0.307982,0.46764 -0.459283,0.69737 -0.0081,0.0123 -0.01609,0.0245 -0.02408,0.0368 -0.155395,0.2394 -0.3089,0.47588 -0.460503,0.70943 -0.0078,0.0121 -0.01563,0.0242 -0.02338,0.0363 -0.155922,0.24367 -0.309837,0.4842 -0.461734,0.72158 -0.0076,0.0119 -0.01518,0.0238 -0.02271,0.0357 -0.156466,0.248 -0.310795,0.49261 -0.462975,0.73381 -0.0074,0.0117 -0.01474,0.0234 -0.02206,0.0352 -0.157031,0.25239 -0.311778,0.5011 -0.464227,0.74612 -0.0072,0.0115 -0.01432,0.0231 -0.02143,0.0347 -0.157619,0.25684 -0.312789,0.50968 -0.465492,0.75851 -0.007,0.0114 -0.01391,0.0227 -0.02081,0.0341 -0.158235,0.26137 -0.31383,0.51837 -0.466767,0.77098 -0.0068,0.0112 -0.01351,0.0224 -0.02022,0.0336 -0.158886,0.26598 -0.31491,0.52717 -0.468053,0.78354 -0.0066,0.011 -0.01313,0.0221 -0.01965,0.0331 -0.159577,0.2707 -0.316035,0.5361 -0.46935,0.79618 -0.0064,0.0109 -0.01276,0.0217 -0.01909,0.0326 -0.160321,0.27554 -0.317216,0.54519 -0.470658,0.8089 -0.0062,0.0107 -0.0124,0.0214 -0.01855,0.0321 -0.161132,0.28053 -0.318468,0.55445 -0.471978,0.8217 -0.006,0.0105 -0.01205,0.0211 -0.01803,0.0316 -0.162031,0.28571 -0.319812,0.56393 -0.473307,0.83459 -0.0059,0.0104 -0.01171,0.0207 -0.01752,0.0311 -0.163052,0.29115 -0.321282,0.5737 -0.47465,0.84756 -0.0057,0.0102 -0.01138,0.0204 -0.01703,0.0306 -0.164245,0.29696 -0.322929,0.58386 -0.476001,0.86062 -0.0055,0.01 -0.01107,0.0201 -0.01656,0.0301 -0.165699,0.30329 -0.324841,0.59458 -0.477365,0.87375 -0.0054,0.01 -0.01076,0.0197 -0.0161,0.0297 -0.167575,0.31047 -0.327183,0.60617 -0.47874,0.88697 a 6.6274951,6.6274951 90 0 0 11.664362,6.29582 z"
       id="path-1"
       inkscape:path-effect="#path-effect4;#path-effect5"
       inkscape:original-d="m 20.766152,212.07985 c 40.911378,-76.25411 66.688924,-7.23492 108.249088,-23.85898 12.47882,-4.99153 22.11075,-14.16413 30.04465,-24.74265 0.59204,-0.78939 4.41833,-4.84521 4.41833,-5.74383 0,-1.04141 -2.06764,0.25876 -3.09283,0.44183 -5.21905,0.93197 -10.27934,2.15014 -15.46416,3.09283 -1.74485,0.31725 -7.07545,0.44183 -5.302,0.44183 3.41348,0 23.43284,-4.52901 23.85899,-3.53466 2.39573,5.59005 0.16201,18.27717 4.41833,22.53348"
       style="fill:#ffffff;fill-opacity:1;fill-rule:nonzero;stroke:none"
       transform="translate(8.8366604,-30.044645)" />
  </g>
</svg>
