<svg width="186" height="77" viewBox="0 0 186 77" fill="none" xmlns="http://www.w3.org/2000/svg">
<g filter="url(#filter0_d_106_435)">
<path d="M12.6829 59.9024C12.9387 57.8557 16.0021 53.9743 17.0647 52.1389C20.3285 46.5014 24.4462 40.4372 29.3528 36.0882C40.4119 26.2858 55.3165 19.9283 69.6464 25.9909C79.9925 30.3681 89.6745 36.0041 100.51 39.2316C108.173 41.5145 118.713 40.7783 126.515 39.8032C142.752 37.7735 153.945 27.5752 163.951 15.7508C165.145 14.3388 165.951 12.6546 166.808 11.0356C167.373 9.96899 169.324 9.8656 166.951 10.607C161.148 12.4206 144.508 19.5046 149.567 16.1318C151.762 14.6684 166.247 6.5444 168.285 9.03521C172.81 14.5662 171.659 24.9066 173 31.6111" stroke="white" stroke-width="5" stroke-linecap="round" shape-rendering="crispEdges"/>
</g>
<defs>
<filter id="filter0_d_106_435" x="0.182617" y="0.0639648" width="185.318" height="76.3386" filterUnits="userSpaceOnUse" color-interpolation-filters="sRGB">
<feFlood flood-opacity="0" result="BackgroundImageFix"/>
<feColorMatrix in="SourceAlpha" type="matrix" values="0 0 0 0 0 0 0 0 0 0 0 0 0 0 0 0 0 0 127 0" result="hardAlpha"/>
<feOffset dy="4"/>
<feGaussianBlur stdDeviation="5"/>
<feComposite in2="hardAlpha" operator="out"/>
<feColorMatrix type="matrix" values="0 0 0 0 0 0 0 0 0 0 0 0 0 0 0 0 0 0 0.25 0"/>
<feBlend mode="normal" in2="BackgroundImageFix" result="effect1_dropShadow_106_435"/>
<feBlend mode="normal" in="SourceGraphic" in2="effect1_dropShadow_106_435" result="shape"/>
</filter>
</defs>
</svg>
