<svg width="36" height="36" viewBox="0 0 36 36" fill="none" xmlns="http://www.w3.org/2000/svg">
<g clip-path="url(#clip0_132_177)">
<rect width="36" height="36" fill="black"/>
<circle cx="18" cy="18" r="18" fill="white"/>
<path d="M15.5419 20.4365C15.5419 19.066 15.5419 17.7934 15.5419 16.423C15.6398 14.661 16.6187 13.78 18.1849 14.4652C18.968 14.7589 19.4575 14.8568 20.0448 14.5631C21.5132 13.78 22.7857 14.3673 24.1561 14.8568C25.0371 15.1504 25.5266 15.8357 25.8203 16.7167C26.6034 19.2618 26.6034 21.8069 26.5055 24.352C26.5055 25.0372 26.2118 25.5267 25.4287 25.6246C25.2329 25.6246 25.135 25.6246 24.9393 25.7224C22.1984 26.2119 21.9047 26.0161 22.1984 23.2752C22.2962 22.1006 22.492 20.9259 22.1984 19.7512C22.0026 19.1639 21.8068 18.4787 21.0237 18.3808C20.3385 18.2829 19.849 18.7723 19.4575 19.2618C19.0659 19.7512 18.968 20.3385 18.968 21.0238C18.968 22.0027 18.968 22.8837 18.968 23.8626C18.968 25.8203 18.8702 25.9182 17.1082 25.8203C15.444 25.8203 15.444 25.8203 15.444 24.1562C15.5419 22.9816 15.5419 21.709 15.5419 20.4365Z" fill="black"/>
<path d="M10.1581 20.2406C10.1581 18.8702 10.1581 17.5976 10.1581 16.2272C10.1581 15.0525 10.8433 14.8567 11.8222 14.7589C12.899 14.7589 13.0947 15.3462 13.0947 16.2272C13.2905 18.7723 13.2905 21.3174 13.1926 23.8625C13.1926 24.7435 13.1926 25.8203 11.8222 25.8203C10.6475 25.9182 10.0602 25.4288 10.0602 24.2541C10.0602 22.8836 10.0602 21.4153 10.0602 20.0448C10.0602 20.2406 10.1581 20.2406 10.1581 20.2406Z" fill="black"/>
<path d="M11.0391 9.375C12.5074 9.375 13.2906 9.96233 13.2906 10.8433C13.2906 11.9201 12.018 13.1927 11.0391 13.1927C10.0602 13.1927 9.375 12.4096 9.375 11.3328C9.47289 10.0602 10.0602 9.375 11.0391 9.375Z" fill="black"/>
</g>
<defs>
<clipPath id="clip0_132_177">
<rect width="36" height="36" fill="white"/>
</clipPath>
</defs>
</svg>
