<?xml version="1.0" encoding="UTF-8" standalone="no"?>
<svg
   viewBox="0 0 16 16"
   id="vector"
   version="1.1"
   sodipodi:docname="Logo-Vector.svg"
   inkscape:version="1.1.1 (3bf5ae0d25, 2021-09-20)"
   inkscape:export-filename="C:\Users\iamhe\Desktop\Qunital Studios\Logos\Logo-PNG - 512x512.png"
   inkscape:export-xdpi="3386.115"
   inkscape:export-ydpi="3386.115"
   xmlns:inkscape="http://www.inkscape.org/namespaces/inkscape"
   xmlns:sodipodi="http://sodipodi.sourceforge.net/DTD/sodipodi-0.dtd"
   xmlns:xlink="http://www.w3.org/1999/xlink"
   xmlns="http://www.w3.org/2000/svg"
   xmlns:svg="http://www.w3.org/2000/svg">
  <defs
     id="defs9">
    <inkscape:path-effect
       effect="bend_path"
       id="path-effect29334"
       is_visible="true"
       lpeversion="1"
       bendpath="m 4.9296906,11.786163 c 1.2079998,1.008857 4.4589702,1.462388 5.8463314,0.03125"
       prop_scale="1"
       scale_y_rel="false"
       vertical="false"
       hide_knot="false"
       bendpath-nodetypes="cc" />
    <inkscape:path-effect
       effect="bend_path"
       id="path-effect18471"
       is_visible="true"
       lpeversion="1"
       bendpath="m 5.1838823,12.722846 c 2.3202857,1.668892 4.7845824,0.861038 5.9231667,0.02344"
       prop_scale="1"
       scale_y_rel="false"
       vertical="false"
       hide_knot="false"
       bendpath-nodetypes="cc" />
    <inkscape:path-effect
       effect="bend_path"
       id="path-effect17458"
       is_visible="true"
       lpeversion="1"
       bendpath="M 5.2760698,12.769721 H 11.246112"
       prop_scale="1"
       scale_y_rel="false"
       vertical="false"
       hide_knot="false" />
    <inkscape:path-effect
       effect="bend_path"
       id="path-effect6184"
       is_visible="true"
       lpeversion="1"
       bendpath="M 5.4859923,12.169846 C 7.0559021,12.849063 9.8231068,13.080711 10.817,11.948876"
       prop_scale="1"
       scale_y_rel="false"
       vertical="false"
       hide_knot="false"
       bendpath-nodetypes="cc" />
    <linearGradient
       inkscape:collect="always"
       id="linearGradient3342-7">
      <stop
         style="stop-color:#0094ff;stop-opacity:1"
         offset="0"
         id="stop3338" />
      <stop
         style="stop-color:#00009a;stop-opacity:1"
         offset="1"
         id="stop3340" />
    </linearGradient>
    <inkscape:path-effect
       effect="bend_path"
       id="path-effect68670"
       is_visible="true"
       lpeversion="1"
       bendpath="M 4.4490263,11.82787 5.5120067,12.1759"
       prop_scale="1"
       scale_y_rel="false"
       vertical="false"
       hide_knot="false"
       bendpath-nodetypes="cc" />
    <inkscape:path-effect
       effect="bend_path"
       id="path-effect67807"
       is_visible="true"
       lpeversion="1"
       bendpath="m 4.5736411,11.873771 1.0079005,0.147513"
       prop_scale="1"
       scale_y_rel="false"
       vertical="false"
       hide_knot="false"
       bendpath-nodetypes="cc" />
    <inkscape:path-effect
       effect="bend_path"
       id="path-effect54769"
       is_visible="true"
       lpeversion="1"
       bendpath="m 5.3103418,11.438244 c 0.6992268,0.785434 3.1570702,2.363864 4.8979492,1.616791"
       prop_scale="1.0543061"
       scale_y_rel="false"
       vertical="false"
       hide_knot="false"
       bendpath-nodetypes="cc" />
    <inkscape:path-effect
       effect="bend_path"
       id="path-effect42640"
       is_visible="true"
       lpeversion="1"
       bendpath="m 4.8712588,13.127428 c 1.5359313,1.360994 3.889221,2.003604 6.3363862,0.187822"
       prop_scale="1"
       scale_y_rel="false"
       vertical="false"
       hide_knot="false"
       bendpath-nodetypes="cc" />
    <linearGradient
       inkscape:collect="always"
       xlink:href="#linearGradient3342-7"
       id="linearGradient4451"
       gradientUnits="userSpaceOnUse"
       x1="2.6870539"
       y1="2.2473328"
       x2="13.766374"
       y2="13.722832" />
  </defs>
  <sodipodi:namedview
     id="namedview7"
     pagecolor="#ffffff"
     bordercolor="#666666"
     borderopacity="1.0"
     inkscape:pageshadow="2"
     inkscape:pageopacity="0.0"
     inkscape:pagecheckerboard="0"
     showgrid="false"
     inkscape:zoom="45.254834"
     inkscape:cx="6.3529125"
     inkscape:cy="7.7892231"
     inkscape:window-width="1920"
     inkscape:window-height="1009"
     inkscape:window-x="1672"
     inkscape:window-y="-8"
     inkscape:window-maximized="1"
     inkscape:current-layer="vector"
     inkscape:snap-bbox="false"
     inkscape:object-nodes="false"
     inkscape:snap-nodes="false"
     inkscape:snap-others="false"
     inkscape:snap-global="false" />
  <path
     id="path"
     d="m 8.041,7.9635 m -7.258,0 c 0,-1.533 0.485,-3.026 1.386,-4.266 0.901,-1.24 2.171,-2.163 3.629,-2.637 1.457,-0.473 3.028,-0.473 4.486,0 1.457,0.474 2.728,1.397 3.629,2.637 0.9,1.24 1.386,2.733 1.386,4.266 0,1.924 -0.765,3.772 -2.126,5.132 -1.361,1.361 -3.208,2.126 -5.132,2.126 -1.924,0 -3.772,-0.765 -5.132,-2.126 -1.361,-1.36 -2.126,-3.208 -2.126,-5.132"
     fill="#ffd100"
     stroke="#000000"
     stroke-width="0.342031"
     inkscape:export-filename="C:\Users\iamhe\Desktop\Qunital Studios\Logo-PNG.png"
     inkscape:export-xdpi="9920.2588"
     inkscape:export-ydpi="9920.2588"
     style="fill:url(#linearGradient4451);fill-opacity:1;stroke:none;stroke-opacity:1;stroke-width:0.342;stroke-miterlimit:4;stroke-dasharray:none" />
  <path
     id="path_1"
     d="m 7.999,3.3635 c -2.455,0 -4.464,2.008 -4.464,4.462 0,2.454 2.009,4.463 4.464,4.463 0.906,0 1.749,-0.277 2.455,-0.745 l 0.476,0.476 c 0.131,0.143 0.305,0.24 0.496,0.275 0.191,0.036 0.388,0.008 0.562,-0.078 0.173,-0.087 0.314,-0.228 0.401,-0.401 0.086,-0.174 0.114,-0.371 0.078,-0.562 -0.036,-0.191 -0.132,-0.365 -0.276,-0.495 l -0.474,-0.475 c 0.47,-0.706 0.746,-1.551 0.746,-2.458 0,-2.454 -2.009,-4.462 -4.464,-4.462 z m 0,1.784 c 1.49,0 2.68,1.189 2.68,2.678 0,0.415 -0.101,0.802 -0.267,1.152 -0.167,-0.165 -0.392,-0.258 -0.626,-0.259 -0.236,10e-4 -0.463,0.094 -0.63,0.261 -0.167,0.166 -0.262,0.392 -0.263,0.628 -0.001,0.236 0.092,0.463 0.258,0.631 -0.35,0.165 -0.737,0.265 -1.152,0.265 -1.49,0 -2.678,-1.188 -2.678,-2.678 0,-1.489 1.188,-2.678 2.678,-2.678 z"
     fill="#000000"
     stroke-width="0.893185"
     inkscape:export-filename="C:\Users\iamhe\Desktop\WallQ_logo.png"
     inkscape:export-xdpi="3308.1653"
     inkscape:export-ydpi="3308.1653"
     style="fill:#ffffff" />
  <path
     id="path_2"
     d="M 7.6342959,9.781624 9.4105712,7.9729688 11.22021,9.7490607 9.4431348,11.558883 Z"
     fill="#000000"
     stroke="#000000"
     stroke-width="0.408689"
     inkscape:export-filename="C:\Users\iamhe\Desktop\WallQ_logo.png"
     inkscape:export-xdpi="3308.1653"
     inkscape:export-ydpi="3308.1653"
     style="fill:#ffffff;stroke:none;stroke-opacity:1" />
  <path
     id="path_2-1"
     d="M 6.707043,10.726746 8.0537587,9.3554804 9.4257696,10.702057 8.0784474,12.074207 Z"
     fill="#000000"
     stroke="#000000"
     stroke-width="0.309855"
     inkscape:export-filename="C:\Users\iamhe\Desktop\WallQ_logo.png"
     inkscape:export-xdpi="3308.1653"
     inkscape:export-ydpi="3308.1653"
     style="fill:#ffffff;stroke:none;stroke-opacity:1" />
  <path
     id="path_3"
     d="M 5.4122073,10.151803 7.1837607,8.3385224 8.998024,10.109889 7.2254879,11.923357 Z"
     fill="#000000"
     stroke="#000000"
     stroke-width="0.408689"
     inkscape:export-filename="C:\Users\iamhe\Desktop\WallQ_logo.png"
     inkscape:export-xdpi="3308.1653"
     inkscape:export-ydpi="3308.1653"
     style="fill:#ffffff;fill-opacity:0.79933113;stroke:none;stroke-opacity:1" />
  <text
     xml:space="preserve"
     style="font-style:normal;font-variant:normal;font-weight:normal;font-stretch:normal;font-size:1.33333px;line-height:1.25;font-family:Azonix;-inkscape-font-specification:Azonix"
     x="3.8125"
     y="12.34375"
     id="text3825"><tspan
       sodipodi:role="line"
       id="tspan3823"
       x="3.8125"
       y="12.34375" /></text>
  <text
     xml:space="preserve"
     style="font-size:1.33333px;line-height:1.25;font-family:'Snap ITC';-inkscape-font-specification:'Snap ITC'"
     x="1.78125"
     y="15.25"
     id="text30777"><tspan
       sodipodi:role="line"
       id="tspan30775"
       x="1.78125"
       y="15.25" /><tspan
       sodipodi:role="line"
       x="1.78125"
       y="16.916662"
       id="tspan30869" /></text>
  <text
     xml:space="preserve"
     style="font-size:1.33333px;line-height:1.25;font-family:'Cambria Math';-inkscape-font-specification:'Cambria Math'"
     x="9.40625"
     y="12.875"
     id="text24069"><tspan
       sodipodi:role="line"
       id="tspan24067"
       x="9.40625"
       y="12.875" /></text>
  <g
     aria-label="Qunital"
     id="text27151"
     style="font-size:1.5431px;line-height:1.25;font-family:'Rai Text 1983 Lowercase';-inkscape-font-specification:'Rai Text 1983 Lowercase';fill:#ffffff;stroke-width:1.15733"
     inkscape:path-effect="#path-effect29334"
     transform="translate(0.08482707,0.1413544)">
    <path
       d="m 5.5865403,12.331984 c 0.028328,-0.02238 0.050316,-0.05091 0.066472,-0.08523 0.033638,-0.07145 0.031162,-0.146506 -0.00157,-0.225301 -0.032084,-0.07921 -0.084912,-0.138919 -0.1606446,-0.184024 -0.075724,-0.0451 -0.1530256,-0.06294 -0.2379946,-0.0539 -0.084362,0.0086 -0.1519566,0.04165 -0.1994293,0.104883 -0.047665,0.06349 -0.061047,0.139007 -0.033406,0.227177 0.027827,0.08744 0.088124,0.1606 0.177938,0.214011 0.044849,0.02667 0.090251,0.04435 0.1353408,0.05309 -0.0087,-0.02149 -0.017165,-0.04298 -0.025396,-0.06448 -0.00934,-0.02355 -0.00969,-0.04248 -0.00153,-0.05672 0.00891,-0.01554 0.028354,-0.0247 0.058034,-0.02804 0.030476,-0.0035 0.06075,-0.0073 0.090826,-0.01158 0.025576,-0.0038 0.047093,-0.0013 0.06489,0.0078 0.020017,0.01027 0.035104,0.02815 0.045623,0.05388 0.00681,0.01614 0.013762,0.03227 0.020846,0.0484 z m -0.1417882,0.301271 c -0.1182688,-0.0035 -0.2408506,-0.04036 -0.3610239,-0.111789 -0.1725288,-0.102554 -0.2879683,-0.245549 -0.3346349,-0.40952 -0.046989,-0.165107 -0.011399,-0.298929 0.084133,-0.40422 0.096197,-0.106025 0.2230353,-0.153559 0.3694539,-0.162043 0.1475625,-0.0086 0.2748479,0.02393 0.4022952,0.09989 0.1270913,0.07575 0.2191779,0.174384 0.2823791,0.311022 0.062888,0.135962 0.077467,0.269652 0.026079,0.402371 -0.038323,0.09898 -0.105471,0.174779 -0.2064517,0.22191 0.011665,0.02203 0.023564,0.04403 0.035689,0.066 0.014203,0.0258 0.018335,0.04683 0.011928,0.06315 -0.00641,0.01632 -0.023984,0.02769 -0.052999,0.03366 -0.030563,0.0061 -0.061323,0.01195 -0.092283,0.0174 -0.029394,0.0053 -0.055119,0.003 -0.076815,-0.0068 -0.022973,-0.01033 -0.041288,-0.02865 -0.054579,-0.05471 -0.011283,-0.0221 -0.022341,-0.04423 -0.033171,-0.06637 z"
       id="path29301"
       inkscape:original-d="m 6.2720257,12.309859 q 0.018837,-0.04897 0.018837,-0.106239 0,-0.119048 -0.083635,-0.203436 -0.082881,-0.08514 -0.2004221,-0.08514 -0.1175409,0 -0.2011757,0.08514 -0.083635,0.08439 -0.083635,0.203436 0,0.119801 0.083635,0.204943 0.083635,0.08439 0.2011757,0.08439 0.05877,0 0.1084992,-0.0211 L 6.0746174,12.4274 q -0.022604,-0.02411 -0.022604,-0.04898 0,-0.02712 0.028632,-0.0535 l 0.05877,-0.05425 q 0.024864,-0.02336 0.048975,-0.02336 0.027125,0 0.051989,0.02788 z m 0.00151,0.335293 q -0.1182943,0.07309 -0.2667272,0.07309 -0.2132312,0 -0.3639245,-0.150693 -0.1506934,-0.150694 -0.1506934,-0.363171 0,-0.213232 0.1506934,-0.363925 0.1506933,-0.150693 0.3639245,-0.150693 0.2124776,0 0.3631709,0.150693 0.1506934,0.150693 0.1506934,0.363925 0,0.159734 -0.085142,0.284057 l 0.043701,0.04747 q 0.025618,0.02788 0.025618,0.05425 0,0.02637 -0.027125,0.05124 l -0.057264,0.05199 q -0.027125,0.02487 -0.052743,0.02487 -0.027125,0 -0.051989,-0.02712 z"
       style="fill:#ffffff" />
    <path
       d="m 6.1519051,12.68372 c 0.062766,0.01953 0.1007285,0.0051 0.1138719,-0.04093 l 0.094508,-0.330721 c 0.013369,-0.04678 -0.00979,-0.07797 -0.067903,-0.09552 -0.029439,-0.0089 -0.058731,-0.01806 -0.087866,-0.02751 -0.055195,-0.01791 -0.091256,-0.0037 -0.1083502,0.04469 l -0.1123716,0.318371 c -0.015825,0.04484 0.00605,0.07854 0.067144,0.09901 0.033535,0.01123 0.067195,0.0221 0.1009674,0.03261 z m 0.1869319,0.119495 c -0.019322,-0.01251 -0.036092,-0.02787 -0.050245,-0.04599 -0.025901,-0.03506 -0.032583,-0.07677 -0.020831,-0.124896 -0.09445,-0.02727 -0.1880243,-0.05726 -0.2804567,-0.09017 -0.029172,0.09615 -0.015149,0.192378 0.048508,0.287744 0.066822,0.09981 0.1826278,0.1748 0.3430863,0.215214 0.018906,0.0053 0.037831,0.01046 0.056775,0.01555 0.00802,0.0019 0.015496,0.0032 0.022412,0.0038 3.344e-4,7.9e-5 6.688e-4,1.58e-4 0.001,2.37e-4 0.1192848,0.02873 0.2390802,0.05356 0.3589537,0.0748 0.051173,0.0088 0.079798,-0.0072 0.086123,-0.04677 l 0.1010893,-0.633057 c 0.00812,-0.05085 -0.017696,-0.08066 -0.076533,-0.09087 -0.04589,-0.008 -0.091623,-0.0164 -0.1371631,-0.02536 -0.03009,-0.0059 -0.048634,0.0076 -0.055558,0.04091 -0.033998,0.166729 -0.067943,0.333471 -0.1018349,0.500228 -0.049917,-0.0105 -0.099735,-0.02166 -0.1494184,-0.03349 -0.063785,-0.0152 -0.112608,-0.03164 -0.1459081,-0.04787 -4e-7,2e-6 -8e-7,3e-6 -1.3e-6,5e-6 z"
       id="path29303"
       inkscape:original-d="m 6.7813693,12.432674 q 0.075347,0 0.075347,-0.07158 V 12.01902 q 0,-0.07233 -0.077607,-0.07233 h -0.078361 q -0.074593,0 -0.074593,0.07685 v 0.337554 q 0,0.07158 0.07384,0.07158 z m 0.1619953,0.06254 q -0.024864,-0.01055 -0.045961,-0.03089 -0.03918,-0.03993 -0.041441,-0.113774 H 6.6261551 q 0.00527,0.150693 0.1047319,0.256179 0.1047319,0.110759 0.2855639,0.110759 l 0.042948,0.0015 q 0.00904,0 0.016576,-0.0015 h 7.534e-4 l 0.2689877,0.0015 q 0.057264,0 0.057264,-0.05952 v -0.632912 q 0,-0.0761 -0.074593,-0.0761 H 7.2123523 q -0.038427,0 -0.038427,0.05048 l 0.00151,0.504823 H 7.0593985 q -0.074593,0 -0.1160339,-0.01055 z"
       style="fill:#ffffff" />
    <path
       d="m 7.8842733,12.753539 c -0.062579,-0.0025 -0.095159,0.01936 -0.097657,0.06709 l -0.017891,0.341721 c -0.00251,0.04796 0.03034,0.07521 0.099719,0.07935 0.034968,0.0021 0.070064,0.0039 0.1052747,0.0053 0.067276,0.0028 0.1010883,-0.02276 0.1015636,-0.0745 l 0.00314,-0.341611 c 4.45e-4,-0.04843 -0.030547,-0.07254 -0.092212,-0.07406 -0.034057,-8.38e-4 -0.068041,-0.0019 -0.1019363,-0.0033 z m -0.1975872,-0.07324 c 0.02003,0.0084 0.038339,0.01985 0.05497,0.03442 0.020166,0.01866 0.033646,0.04169 0.040363,0.06919 0,0 0,0 0,0 0,0 0,0 0,0 0.00355,0.01452 0.00523,0.03029 0.00499,0.0473 0.096331,0.0056 0.1935577,0.0091 0.2913109,0.01035 -0.00355,-0.101763 -0.046978,-0.188465 -0.125742,-0.261079 -0.043634,-0.04011 -0.095179,-0.07034 -0.1548618,-0.09121 0,0 0,0 0,0 0,0 0,0 0,0 0,0 -1e-7,0 -1e-7,0 0,0 0,0 0,0 -0.054361,-0.02003 -0.1157321,-0.03268 -0.1846897,-0.03833 -0.017208,-0.0019 -0.034414,-0.0039 -0.051617,-0.0059 -0.00726,-6.36e-4 -0.013955,-7.26e-4 -0.020092,-2.65e-4 -3.025e-4,-2.7e-5 -6.051e-4,-5.4e-5 -9.076e-4,-8.2e-5 -0.1079736,-0.01021 -0.215887,-0.02241 -0.3233078,-0.03693 -0.04566,-0.006 -0.071337,0.01058 -0.076875,0.05044 l -0.088214,0.634874 c -0.00705,0.05077 0.022434,0.08112 0.088989,0.08923 0.051609,0.0063 0.1031563,0.01197 0.1546087,0.01706 0.034123,0.0034 0.052771,-0.01208 0.056131,-0.04586 0.016152,-0.169175 0.032346,-0.338352 0.048581,-0.50753 0.047891,0.0048 0.095779,0.0092 0.1436304,0.01312 0.061614,0.0051 0.108938,0.01188 0.1427254,0.02118 1.3e-6,-10e-7 2.6e-6,-3e-6 3.9e-6,-4e-6 z"
       id="path29305"
       inkscape:original-d="m 8.133842,12.232252 q -0.075347,0 -0.075347,0.07158 v 0.342074 q 0,0.07233 0.077607,0.07233 h 0.078361 q 0.074593,0 0.074593,-0.07685 v -0.337553 q 0,-0.07158 -0.07384,-0.07158 z m -0.1619953,-0.06254 q 0.024864,0.01055 0.045961,0.03089 0.03918,0.03993 0.041441,0.113774 h 0.2298074 q -0.00527,-0.150694 -0.1047319,-0.256179 -0.1047319,-0.11076 -0.2855639,-0.11076 l -0.042948,-0.0015 q -0.00904,0 -0.016576,0.0015 h -7.534e-4 l -0.2689877,-0.0015 q -0.057264,0 -0.057264,0.05952 v 0.632912 q 0,0.0761 0.074593,0.0761 H 7.702859 q 0.038427,0 0.038427,-0.05048 l -0.00151,-0.504822 h 0.1160339 q 0.074593,0 0.1160339,0.01055 z"
       style="fill:#ffffff" />
    <path
       d="m 8.3703956,12.462825 c 0.032059,-0.0014 0.064099,-0.003 0.096104,-0.0049 0.057164,-0.0034 0.087739,0.01846 0.091327,0.06706 l 0.04682,0.634034 c 0.00383,0.05191 -0.027296,0.08086 -0.093979,0.08454 -0.035294,0.0019 -0.07055,0.0035 -0.1057518,0.0048 -0.069882,0.0025 -0.1050021,-0.02198 -0.1061887,-0.07081 l -0.015523,-0.638808 c -0.00118,-0.0486 0.028089,-0.07341 0.08719,-0.07594 4e-7,0 8e-7,1e-6 1.2e-6,1e-6 z m 0.031377,-0.274189 c 0.033885,-0.0018 0.063094,0.0072 0.088106,0.02708 0.024974,0.01938 0.038717,0.04376 0.040847,0.07337 0.00217,0.03011 -0.00798,0.05654 -0.030958,0.0791 -0.022968,0.02254 -0.052297,0.03483 -0.087613,0.03661 -0.034715,0.0018 -0.065132,-0.0075 -0.09082,-0.02753 -0.025111,-0.02006 -0.037827,-0.04524 -0.038587,-0.07537 -7.479e-4,-0.02962 0.010658,-0.05527 0.033744,-0.07713 0.023665,-0.0224 0.051971,-0.03439 0.085282,-0.03614 z"
       id="path29307"
       inkscape:original-d="m 8.5286589,11.945934 h 0.079867 q 0.071579,0 0.071579,0.07158 v 0.62387 q 0,0.07685 -0.072333,0.07685 h -0.076854 q -0.0761,0 -0.0761,-0.07233 v -0.628391 q 0,-0.07158 0.07384,-0.07158 z m 0.03692,-0.26748 q 0.044455,0 0.075347,0.03164 0.030892,0.03089 0.030892,0.07459 0,0.04445 -0.030892,0.07535 -0.030892,0.03089 -0.075347,0.03089 -0.043701,0 -0.075347,-0.03089 -0.030892,-0.03089 -0.030892,-0.07535 0,-0.0437 0.030892,-0.07459 0.031646,-0.03164 0.075347,-0.03164 z"
       style="fill:#ffffff" />
    <path
       d="m 9.0537693,12.548738 c 0.043694,-0.0076 0.087183,-0.01586 0.130429,-0.02476 0.057304,-0.01179 0.079641,-0.04281 0.068526,-0.09093 l -0.018101,-0.07837 c -0.010837,-0.04692 -0.043137,-0.06402 -0.096885,-0.05333 -0.04095,0.0081 -0.082185,0.0157 -0.1236656,0.02269 l -0.01925,-0.108968 c -0.00842,-0.04768 -0.038966,-0.06686 -0.091548,-0.05922 -0.036441,0.0053 -0.073092,0.01018 -0.1099234,0.01467 -0.042617,0.0052 -0.061973,0.0274 -0.057329,0.0676 l 0.077903,0.67417 c 0.023324,0.201846 0.1366094,0.296951 0.3463898,0.257756 0.08544,-0.01596 0.170617,-0.03431 0.2553353,-0.05516 0.06545,-0.01611 0.091362,-0.04935 0.079177,-0.09703 l -0.019859,-0.07772 c -0.0119,-0.04657 -0.048817,-0.06109 -0.1106217,-0.04622 -0.043117,0.01037 -0.0864,0.02008 -0.1298194,0.02915 -0.074025,0.01546 -0.1158786,-0.0071 -0.1259316,-0.06397 -0.018276,-0.103451 -0.036552,-0.206902 -0.054827,-0.310352 z"
       id="path29309"
       inkscape:original-d="m 9.0801963,12.099642 h 0.1084992 q 0.071579,0 0.071579,-0.07384 v -0.07987 q 0,-0.07158 -0.071579,-0.07158 H 9.0801963 v -0.109253 q 0,-0.07158 -0.071579,-0.07158 h -0.098704 q -0.057264,0 -0.057264,0.05952 v 0.666818 q 0,0.30214 0.2252866,0.30214 h 0.1861063 q 0.071579,0 0.071579,-0.07384 v -0.07987 q 0,-0.07158 -0.071579,-0.07158 h -0.099458 q -0.084388,0 -0.084388,-0.0859 z"
       style="fill:#ffffff" />
    <path
       d="m 10.081414,12.669964 c 0.0613,-0.0281 0.100234,-0.05478 0.116776,-0.07692 0.01727,-0.02262 0.02186,-0.04126 0.01441,-0.05571 l -0.03055,-0.05924 c -0.05652,0.02936 -0.1139,0.05702 -0.172045,0.08306 -0.059487,0.02663 -0.098407,0.04891 -0.1170536,0.06993 -0.017866,0.02058 -0.023505,0.04008 -0.016361,0.05869 0.00588,0.01532 0.02252,0.02439 0.050131,0.02663 0.028026,0.002 0.073878,-0.0099 0.1353276,-0.03763 0.0065,-0.0029 0.01292,-0.0059 0.01937,-0.0088 z m 0.01041,-0.338697 c -0.0061,-0.0024 -0.01283,-0.0043 -0.0203,-0.0055 -0.03033,-0.0042 -0.074489,0.0083 -0.1350511,0.03536 -0.1177006,0.0526 -0.2393575,0.09809 -0.3639809,0.137088 -0.060283,0.01887 -0.097128,0.0037 -0.1103538,-0.04257 l -0.021156,-0.07395 c -0.014022,-0.04902 0.00634,-0.08044 0.059192,-0.09645 0.1216778,-0.03685 0.2397886,-0.08007 0.3532264,-0.130353 0.1147785,-0.05088 0.2144288,-0.07129 0.3101258,-0.05791 0.09507,0.01329 0.168707,0.05179 0.215964,0.124038 l 0.20428,0.312332 c 0.02707,0.04138 0.0093,0.08379 -0.0567,0.123808 -0.02752,0.01669 -0.05521,0.03298 -0.08307,0.04888 -0.03944,0.0225 -0.07183,0.03072 -0.09641,0.02541 -0.05162,0.04276 -0.115659,0.08266 -0.19148,0.117625 -0.01977,0.0091 -0.0396,0.01806 -0.05949,0.02682 -0.1454363,0.0641 -0.2727783,0.08346 -0.3741467,0.06524 -0.1015428,-0.01825 -0.1601045,-0.06491 -0.1792106,-0.132892 -0.02035,-0.07241 0.00532,-0.141485 0.070707,-0.209622 0.065904,-0.06867 0.156773,-0.123184 0.27528,-0.173203 0.068794,-0.02904 0.136377,-0.06038 0.202566,-0.09417 z"
       id="path29311"
       inkscape:original-d="m 9.8253751,12.517062 q 0.075347,0 0.103225,-0.01884 0.028632,-0.01884 0.028632,-0.0437 v -0.06781 H 9.8095523 q -0.075347,0 -0.1039784,0.01884 -0.027878,0.01884 -0.027878,0.04897 0,0.02487 0.027878,0.0437 0.028632,0.01884 0.1039784,0.01884 z m 0.1213082,-0.305154 q -0.00527,-0.0075 -0.012809,-0.01432 -0.030892,-0.02637 -0.11302,-0.02637 H 9.5013844 q -0.076854,0 -0.076854,-0.07233 v -0.07685 q 0,-0.0761 0.072333,-0.0761 H 9.828389 q 0.1680231,0 0.266727,0.09192 0.0987,0.09192 0.0987,0.22378 v 0.380501 q 0,0.0761 -0.07987,0.0761 h -0.06706 q -0.047468,0 -0.067812,-0.02487 -0.069319,0.02034 -0.1574746,0.02034 h -0.045962 q -0.1680231,0 -0.2667272,-0.07384 -0.098704,-0.07384 -0.098704,-0.180078 0,-0.112267 0.098704,-0.180079 0.098704,-0.06781 0.2554252,-0.06781 z"
       style="fill:#ffffff" />
    <path
       d="m 10.233409,11.632561 c 0.01998,-0.01663 0.03955,-0.0337 0.0587,-0.05121 0.03401,-0.03111 0.06639,-0.03109 0.09888,0.0038 l 0.595424,0.638955 c 0.0345,0.03702 0.02587,0.07981 -0.02921,0.125863 -0.02904,0.02428 -0.05838,0.04799 -0.088,0.07115 -0.05896,0.04609 -0.103156,0.04789 -0.131247,0.01015 L 10.218973,11.73397 c -0.02813,-0.03779 -0.0222,-0.07092 0.01444,-0.101416 -2e-6,2e-6 -5e-6,4e-6 -7e-6,7e-6 z"
       id="path29313"
       inkscape:original-d="m 10.39801,11.689756 h 0.07987 q 0.07158,0 0.07158,0.07158 v 0.880049 q 0,0.07685 -0.07233,0.07685 h -0.07685 q -0.0761,0 -0.0761,-0.07233 v -0.88457 q 0,-0.07158 0.07384,-0.07158 z"
       style="fill:#ffffff" />
  </g>
</svg>
