<svg width="150" height="150" viewBox="0 0 150 150" fill="none" xmlns="http://www.w3.org/2000/svg">
<g filter="url(#filter0_i_544_639)">
<rect width="150" height="150" rx="31" fill="url(#paint0_linear_544_639)"/>
</g>
<g filter="url(#filter1_d_544_639)">
<path d="M75 30L121.127 59.9551" stroke="white" stroke-width="10" stroke-linecap="round"/>
<path d="M29 59.9106L75.0582 30.0001" stroke="white" stroke-width="10" stroke-linecap="round"/>
<path d="M59.5064 98.9976L45 98.9995L48.7609 90.0748C52.5219 81.7076 67 84.0002 66 84.5C65 84.9998 60 85.9997 59.5064 98.9976Z" fill="white"/>
<path d="M90.5276 98.9981L105 99L101.248 90.1717C97.4958 81.8949 83.0516 84.1628 84.0493 84.6572C85.0469 85.1516 90.0352 86.1406 90.5276 98.9981Z" fill="white"/>
<path d="M39 50H49V99H44C41.2386 99 39 96.7614 39 94V50Z" fill="white"/>
<path d="M111 50H101V99H106C108.761 99 111 96.7614 111 94V50Z" fill="white"/>
<circle cx="75" cy="60" r="9" fill="white"/>
<circle cx="58" cy="75" r="7" fill="white"/>
<circle cx="75" cy="77" r="6" fill="white"/>
<circle cx="92" cy="75" r="7" fill="white"/>
<path d="M65 95C65 89.4772 69.4772 85 75 85C80.5228 85 85 89.4772 85 95V99H65V95Z" fill="white"/>
</g>
<g filter="url(#filter2_d_544_639)">
<path d="M35.344 120.472C35.376 120.536 35.392 120.605 35.392 120.68C35.392 120.755 35.3547 120.829 35.28 120.904C35.216 120.968 35.136 121 35.04 121H31.76C31.4293 121 31.2 120.856 31.072 120.568L29.696 117.512H29.04V120.568C29.04 120.685 28.9973 120.787 28.912 120.872C28.8267 120.957 28.7253 121 28.608 121H25.472C25.3547 121 25.2533 120.957 25.168 120.872C25.0827 120.787 25.04 120.685 25.04 120.568V110.232C25.04 110.115 25.0827 110.013 25.168 109.928C25.2533 109.843 25.3547 109.8 25.472 109.8H30.208C31.744 109.8 32.944 110.147 33.808 110.84C34.672 111.523 35.104 112.509 35.104 113.8C35.104 115.08 34.528 116.088 33.376 116.824L35.344 120.472ZM29.04 112.776V114.472H30.208C30.4427 114.472 30.624 114.397 30.752 114.248C30.88 114.088 30.944 113.891 30.944 113.656C30.944 113.421 30.88 113.219 30.752 113.048C30.6347 112.867 30.4533 112.776 30.208 112.776H29.04ZM38.051 110.824C39.0323 110.035 40.3283 109.64 41.939 109.64C43.5497 109.64 44.8403 110.04 45.811 110.84C46.7923 111.629 47.283 112.744 47.283 114.184V116.68C47.283 118.141 46.7977 119.256 45.827 120.024C44.867 120.781 43.571 121.16 41.939 121.16C40.307 121.16 39.0057 120.781 38.035 120.024C37.075 119.256 36.595 118.141 36.595 116.68V114.184C36.595 112.733 37.0803 111.613 38.051 110.824ZM41.075 117.72C41.2883 117.933 41.5763 118.04 41.939 118.04C42.3017 118.04 42.5897 117.933 42.803 117.72C43.0163 117.507 43.123 117.181 43.123 116.744V114.056C43.123 113.629 43.0163 113.309 42.803 113.096C42.5897 112.872 42.3017 112.76 41.939 112.76C41.5763 112.76 41.2883 112.872 41.075 113.096C40.8617 113.309 40.755 113.629 40.755 114.056V116.744C40.755 117.181 40.8617 117.507 41.075 117.72ZM50.176 110.824C51.1573 110.035 52.4533 109.64 54.064 109.64C55.6747 109.64 56.9653 110.04 57.936 110.84C58.9173 111.629 59.408 112.744 59.408 114.184V116.68C59.408 118.141 58.9227 119.256 57.952 120.024C56.992 120.781 55.696 121.16 54.064 121.16C52.432 121.16 51.1307 120.781 50.16 120.024C49.2 119.256 48.72 118.141 48.72 116.68V114.184C48.72 112.733 49.2053 111.613 50.176 110.824ZM53.2 117.72C53.4133 117.933 53.7013 118.04 54.064 118.04C54.4267 118.04 54.7147 117.933 54.928 117.72C55.1413 117.507 55.248 117.181 55.248 116.744V114.056C55.248 113.629 55.1413 113.309 54.928 113.096C54.7147 112.872 54.4267 112.76 54.064 112.76C53.7013 112.76 53.4133 112.872 53.2 113.096C52.9867 113.309 52.88 113.629 52.88 114.056V116.744C52.88 117.181 52.9867 117.507 53.2 117.72ZM70.141 109.8H72.669C72.7863 109.8 72.8877 109.843 72.973 109.928C73.0583 110.013 73.101 110.115 73.101 110.232V120.568C73.101 120.685 73.0583 120.787 72.973 120.872C72.8877 120.957 72.7863 121 72.669 121H69.773C69.6557 121 69.5543 120.957 69.469 120.872C69.3837 120.787 69.341 120.685 69.341 120.568V116.184L68.285 117.912C68.1143 118.179 67.917 118.312 67.693 118.312H66.573C66.349 118.312 66.1517 118.179 65.981 117.912L64.925 116.184V120.568C64.925 120.685 64.8823 120.787 64.797 120.872C64.7117 120.957 64.6103 121 64.493 121H61.597C61.4797 121 61.3783 120.957 61.293 120.872C61.2077 120.787 61.165 120.685 61.165 120.568V110.232C61.165 110.115 61.2077 110.013 61.293 109.928C61.3783 109.843 61.4797 109.8 61.597 109.8H64.125C64.4237 109.8 64.653 109.944 64.813 110.232L67.133 114.072L69.453 110.232C69.613 109.944 69.8423 109.8 70.141 109.8ZM90.1253 120.472C90.1573 120.536 90.1733 120.605 90.1733 120.68C90.1733 120.755 90.1359 120.829 90.0613 120.904C89.9973 120.968 89.9173 121 89.8213 121H86.5413C86.2106 121 85.9813 120.856 85.8533 120.568L84.4773 117.512H83.8213V120.568C83.8213 120.685 83.7786 120.787 83.6933 120.872C83.6079 120.957 83.5066 121 83.3893 121H80.2533C80.1359 121 80.0346 120.957 79.9493 120.872C79.8639 120.787 79.8213 120.685 79.8213 120.568V110.232C79.8213 110.115 79.8639 110.013 79.9493 109.928C80.0346 109.843 80.1359 109.8 80.2533 109.8H84.9893C86.5253 109.8 87.7253 110.147 88.5893 110.84C89.4533 111.523 89.8853 112.509 89.8853 113.8C89.8853 115.08 89.3093 116.088 88.1573 116.824L90.1253 120.472ZM83.8213 112.776V114.472H84.9893C85.2239 114.472 85.4053 114.397 85.5333 114.248C85.6613 114.088 85.7253 113.891 85.7253 113.656C85.7253 113.421 85.6613 113.219 85.5333 113.048C85.4159 112.867 85.2346 112.776 84.9893 112.776H83.8213ZM98.3363 109.8H101.472C101.59 109.8 101.691 109.843 101.776 109.928C101.862 110.013 101.904 110.115 101.904 110.232V116.664C101.904 118.157 101.44 119.283 100.512 120.04C99.5843 120.787 98.3203 121.16 96.7203 121.16C95.1309 121.16 93.8669 120.787 92.9283 120.04C92.0003 119.293 91.5363 118.168 91.5363 116.664V110.232C91.5363 110.115 91.5789 110.013 91.6643 109.928C91.7496 109.843 91.8509 109.8 91.9683 109.8H95.1043C95.2216 109.8 95.3229 109.843 95.4083 109.928C95.4936 110.013 95.5363 110.115 95.5363 110.232V116.712C95.5363 117.533 95.9309 117.944 96.7203 117.944C97.5096 117.944 97.9043 117.533 97.9043 116.712V110.232C97.9043 110.115 97.9469 110.013 98.0323 109.928C98.1176 109.843 98.2189 109.8 98.3363 109.8ZM107.885 117.72H112.317C112.435 117.72 112.536 117.763 112.621 117.848C112.707 117.933 112.749 118.035 112.749 118.152V120.568C112.749 120.685 112.707 120.787 112.621 120.872C112.536 120.957 112.435 121 112.317 121H104.253C104.136 121 104.035 120.957 103.949 120.872C103.864 120.787 103.821 120.685 103.821 120.568V110.232C103.821 110.115 103.864 110.013 103.949 109.928C104.035 109.843 104.136 109.8 104.253 109.8H107.453C107.571 109.8 107.672 109.843 107.757 109.928C107.843 110.013 107.885 110.115 107.885 110.232V117.72ZM118.036 117.88H122.964C123.082 117.88 123.183 117.923 123.268 118.008C123.354 118.093 123.396 118.195 123.396 118.312V120.568C123.396 120.685 123.354 120.787 123.268 120.872C123.183 120.957 123.082 121 122.964 121H114.628C114.511 121 114.41 120.957 114.324 120.872C114.239 120.787 114.196 120.685 114.196 120.568V110.232C114.196 110.115 114.239 110.013 114.324 109.928C114.41 109.843 114.511 109.8 114.628 109.8H122.836C122.954 109.8 123.055 109.843 123.14 109.928C123.226 110.013 123.268 110.115 123.268 110.232V112.488C123.268 112.605 123.226 112.707 123.14 112.792C123.055 112.877 122.954 112.92 122.836 112.92H118.036V113.928H122.484C122.602 113.928 122.703 113.971 122.788 114.056C122.874 114.141 122.916 114.243 122.916 114.36V116.44C122.916 116.557 122.874 116.659 122.788 116.744C122.703 116.829 122.602 116.872 122.484 116.872H118.036V117.88Z" fill="white"/>
</g>
<defs>
<filter id="filter0_i_544_639" x="0" y="0" width="154" height="154" filterUnits="userSpaceOnUse" color-interpolation-filters="sRGB">
<feFlood flood-opacity="0" result="BackgroundImageFix"/>
<feBlend mode="normal" in="SourceGraphic" in2="BackgroundImageFix" result="shape"/>
<feColorMatrix in="SourceAlpha" type="matrix" values="0 0 0 0 0 0 0 0 0 0 0 0 0 0 0 0 0 0 127 0" result="hardAlpha"/>
<feOffset dx="4" dy="4"/>
<feGaussianBlur stdDeviation="2"/>
<feComposite in2="hardAlpha" operator="arithmetic" k2="-1" k3="1"/>
<feColorMatrix type="matrix" values="0 0 0 0 1 0 0 0 0 1 0 0 0 0 1 0 0 0 0.5 0"/>
<feBlend mode="normal" in2="shape" result="effect1_innerShadow_544_639"/>
</filter>
<filter id="filter1_d_544_639" x="19.9994" y="24.9994" width="110.128" height="82.0006" filterUnits="userSpaceOnUse" color-interpolation-filters="sRGB">
<feFlood flood-opacity="0" result="BackgroundImageFix"/>
<feColorMatrix in="SourceAlpha" type="matrix" values="0 0 0 0 0 0 0 0 0 0 0 0 0 0 0 0 0 0 127 0" result="hardAlpha"/>
<feOffset dy="4"/>
<feGaussianBlur stdDeviation="2"/>
<feComposite in2="hardAlpha" operator="out"/>
<feColorMatrix type="matrix" values="0 0 0 0 0 0 0 0 0 0 0 0 0 0 0 0 0 0 0.25 0"/>
<feBlend mode="normal" in2="BackgroundImageFix" result="effect1_dropShadow_544_639"/>
<feBlend mode="normal" in="SourceGraphic" in2="effect1_dropShadow_544_639" result="shape"/>
</filter>
<filter id="filter2_d_544_639" x="15.04" y="103.64" width="118.356" height="31.52" filterUnits="userSpaceOnUse" color-interpolation-filters="sRGB">
<feFlood flood-opacity="0" result="BackgroundImageFix"/>
<feColorMatrix in="SourceAlpha" type="matrix" values="0 0 0 0 0 0 0 0 0 0 0 0 0 0 0 0 0 0 127 0" result="hardAlpha"/>
<feOffset dy="4"/>
<feGaussianBlur stdDeviation="5"/>
<feComposite in2="hardAlpha" operator="out"/>
<feColorMatrix type="matrix" values="0 0 0 0 0 0 0 0 0 0 0 0 0 0 0 0 0 0 0.2 0"/>
<feBlend mode="normal" in2="BackgroundImageFix" result="effect1_dropShadow_544_639"/>
<feBlend mode="normal" in="SourceGraphic" in2="effect1_dropShadow_544_639" result="shape"/>
</filter>
<linearGradient id="paint0_linear_544_639" x1="0" y1="0" x2="150" y2="150" gradientUnits="userSpaceOnUse">
<stop stop-color="#FD7209"/>
<stop offset="1" stop-color="#FE3900"/>
</linearGradient>
</defs>
</svg>
