<svg width="36" height="36" viewBox="0 0 36 36" fill="none" xmlns="http://www.w3.org/2000/svg">
<g clip-path="url(#clip0_106_498)">
<rect width="36" height="36" fill="black"/>
<circle cx="18" cy="18" r="18" fill="white"/>
<path d="M11.625 9.75C14.4946 12.4402 17.0054 14.8614 19.6957 17.4619C17.0951 20.4212 14.6739 23.2011 11.9837 26.25C11.4457 20.6005 12.0734 15.3098 11.625 9.75Z" fill="black"/>
<path d="M22.8342 20.4212C20.0543 21.856 17.4538 23.6495 14.3152 24.7256C16.1983 22.5734 18.1712 20.5109 19.9647 18.0897C21.0407 18.9865 21.8478 19.8832 22.8342 20.4212Z" fill="black"/>
<path d="M22.8343 20.5112C22.8343 19.4351 21.8479 18.9867 21.3099 18.359C20.7718 17.6416 20.7718 17.1932 21.3099 16.5655C22.5653 15.1307 22.4756 15.1307 24.1794 16.1171C24.9865 16.5655 25.7936 17.0139 26.511 17.5519C26.6006 17.6416 26.6903 17.821 26.78 18.0003C25.5246 18.7177 24.1794 19.6144 22.8343 20.5112C22.8343 20.5112 22.8343 20.4215 22.8343 20.5112Z" fill="black"/>
<path d="M21.9376 14.772C20.1441 17.1932 20.1441 17.1933 18.0816 15.1308C17.1848 14.234 16.2881 13.3373 15.3017 12.4405C14.7636 11.9025 14.3153 11.4541 14.1359 10.3781C16.9158 11.8128 19.4267 13.0682 21.9376 14.772Z" fill="black"/>
</g>
<defs>
<clipPath id="clip0_106_498">
<rect width="36" height="36" fill="white"/>
</clipPath>
</defs>
</svg>
